<svg width="110" height="22" xmlns="http://www.w3.org/2000/svg"><g fill="none" fill-rule="evenodd"><path d="M31.168 1.736h7.764c1.172 0 2.187.122 3.047.367.859.244 1.572.597 2.138 1.06a4.273 4.273 0 0 1 1.265 1.689c.277.664.415 1.416.415 2.255a6.23 6.23 0 0 1-.205 1.617 4.8 4.8 0 0 1-.63 1.41c-.283.43-.64.813-1.07 1.148-.43.336-.934.614-1.513.835L45.699 17H41.91l-2.87-4.336h-.089l-4.687-.01V17h-3.096V1.736zM39.01 9.98c.586 0 1.098-.069 1.538-.206.44-.136.807-.328 1.103-.576a2.29 2.29 0 0 0 .664-.903c.147-.355.22-.75.22-1.187 0-.852-.293-1.512-.879-1.977-.586-.466-1.468-.698-2.646-.698h-4.746V9.98h4.746zm11.61-6.076a2.31 2.31 0 0 1-.776-.122 1.824 1.824 0 0 1-.591-.332 1.47 1.47 0 0 1-.376-.488 1.363 1.363 0 0 1-.132-.59 1.385 1.385 0 0 1 .508-1.085c.163-.137.36-.246.59-.327.232-.081.49-.122.777-.122.293 0 .555.04.786.122.231.081.428.19.591.327a1.385 1.385 0 0 1 .508 1.084c0 .208-.044.405-.132.59a1.47 1.47 0 0 1-.376.49c-.163.14-.36.25-.59.331a2.359 2.359 0 0 1-.787.122zm-1.445 1.573h2.89V17h-2.89V5.477zm9.404 16.23h-2.89V5.477h2.89V6.56c.254-.176.553-.342.899-.498a8.59 8.59 0 0 1 1.113-.41 9.95 9.95 0 0 1 1.23-.279 7.949 7.949 0 0 1 1.27-.103c.976 0 1.873.144 2.69.43.817.287 1.519.69 2.105 1.211a5.518 5.518 0 0 1 1.372 1.87c.329.726.493 1.529.493 2.407 0 .918-.173 1.747-.518 2.486a5.591 5.591 0 0 1-1.43 1.894 6.451 6.451 0 0 1-2.168 1.211 8.43 8.43 0 0 1-2.72.425 9.72 9.72 0 0 1-1.235-.078 10.688 10.688 0 0 1-1.172-.215 8.526 8.526 0 0 1-1.055-.327 5.92 5.92 0 0 1-.874-.415v5.537zm0-8.33c.293.234.602.433.928.596a6.498 6.498 0 0 0 2.021.63 7.3 7.3 0 0 0 1.006.073c.664 0 1.255-.09 1.773-.269a3.865 3.865 0 0 0 1.308-.737c.355-.313.627-.68.816-1.104a3.34 3.34 0 0 0 .283-1.377 3.138 3.138 0 0 0-1.08-2.387 3.866 3.866 0 0 0-1.259-.733 4.811 4.811 0 0 0-1.655-.268c-.39 0-.782.037-1.172.112-.39.075-.767.18-1.128.317a5.88 5.88 0 0 0-1.016.499c-.315.195-.59.413-.825.654v3.994zm16.71 8.33h-2.892V5.477h2.891V6.56a5.7 5.7 0 0 1 .898-.498 8.59 8.59 0 0 1 1.114-.41 9.95 9.95 0 0 1 1.23-.279 7.949 7.949 0 0 1 1.27-.103c.976 0 1.873.144 2.69.43.817.287 1.519.69 2.105 1.211a5.518 5.518 0 0 1 1.372 1.87c.329.726.493 1.529.493 2.407 0 .918-.173 1.747-.518 2.486a5.591 5.591 0 0 1-1.43 1.894 6.451 6.451 0 0 1-2.168 1.211 8.43 8.43 0 0 1-2.72.425 9.72 9.72 0 0 1-1.235-.078 10.688 10.688 0 0 1-1.172-.215 8.526 8.526 0 0 1-1.055-.327 5.92 5.92 0 0 1-.874-.415v5.537zm0-8.33c.292.234.601.433.927.596a6.498 6.498 0 0 0 2.021.63 7.3 7.3 0 0 0 1.006.073c.664 0 1.255-.09 1.773-.269a3.865 3.865 0 0 0 1.308-.737c.355-.313.627-.68.816-1.104a3.34 3.34 0 0 0 .283-1.377 3.138 3.138 0 0 0-1.08-2.387 3.866 3.866 0 0 0-1.259-.733 4.811 4.811 0 0 0-1.655-.268c-.39 0-.782.037-1.172.112-.39.075-.767.18-1.128.317a5.88 5.88 0 0 0-1.016.499c-.315.195-.59.413-.825.654v3.994zM89.263.799h2.89V17h-2.89V.799zm6.045 10.4c0-.781.16-1.528.478-2.241a5.684 5.684 0 0 1 1.377-1.89c.599-.547 1.333-.983 2.202-1.308.87-.326 1.857-.489 2.964-.489 1.1 0 2.092.165 2.974.494.882.328 1.63.78 2.246 1.352a5.86 5.86 0 0 1 1.416 2.022c.329.774.493 1.604.493 2.49 0 .11-.002.23-.005.356a3.544 3.544 0 0 1-.024.347H98.53c.124.345.324.66.6.947.278.287.624.534 1.04.742.418.209.9.37 1.446.484a8.93 8.93 0 0 0 1.817.17c.664 0 1.324-.07 1.982-.21a14.67 14.67 0 0 0 1.885-.531l.976 2.207c-.377.175-.76.33-1.147.463a9.91 9.91 0 0 1-1.211.333c-.42.087-.86.154-1.318.2-.46.045-.943.068-1.45.068-1.296 0-2.432-.156-3.409-.469-.976-.312-1.793-.739-2.451-1.279a5.281 5.281 0 0 1-1.484-1.904 5.612 5.612 0 0 1-.498-2.354zm11.084-1.123a2.88 2.88 0 0 0-.484-.893 3.192 3.192 0 0 0-.815-.723 4.171 4.171 0 0 0-1.133-.483 5.372 5.372 0 0 0-1.416-.176c-.547 0-1.045.062-1.494.185-.45.124-.843.29-1.182.498-.338.209-.62.45-.845.723a2.776 2.776 0 0 0-.493.87h7.862z" fill="#444"/><path d="M21.09 8.77h.015l-.095 1.824H21a10.68 10.68 0 0 1-.014.456c-.304 5.79-5.244 10.24-11.036 9.936C4.16 20.682-.29 15.742.014 9.95.31 4.312 5.001-.053 10.594 0v-.01l2.735.144V.15c.097-.006.216-.005.368.003l6.558.344c.445.023.604.078.762.174.158.095.28.23.358.397.078.167.116.331.093.776l-.344 6.558c-.008.152-.02.27-.035.367z" fill="#3EA8F8"/></g></svg>