<svg width="29" height="36" viewBox="0 0 29 36" fill="none" xmlns="http://www.w3.org/2000/svg">
  <path fill-rule="evenodd" clip-rule="evenodd"
        d="M6.07448 26.2613C1.03329 22.7062 -1.12489 16.2957 0.739893 10.4157C2.60467 4.53564 8.06288 0.540527 14.2315 0.540527C20.4002 0.540527 25.8584 4.53564 27.7232 10.4157C29.5879 16.2957 27.4298 22.7062 22.3886 26.2613L26.0739 34.6828C26.1941 34.9567 26.1678 35.2728 26.004 35.5231C25.8401 35.7733 25.5609 35.9238 25.2618 35.9231H3.19948C2.90085 35.9235 2.62216 35.7733 2.45841 35.5235C2.29465 35.2738 2.26795 34.9583 2.38741 34.6846L6.07271 26.2613H6.07448ZM17.9903 25.0352L20.3469 23.3704C24.129 20.7049 25.7488 15.8966 24.3507 11.4859C22.9526 7.07513 18.8586 4.0781 14.2315 4.0781C9.60451 4.0781 5.5105 7.07513 4.11237 11.4859C2.71424 15.8966 4.3341 20.7049 8.11619 23.3704L10.471 25.0352L7.25635 32.3846H21.205L17.9903 25.0352ZM10.7965 15.5504L7.36421 16.4085C8.1561 19.5553 10.9857 21.761 14.2306 21.761C17.4755 21.761 20.3051 19.5553 21.097 16.4085L17.6647 15.5504C17.2727 17.1281 15.8562 18.2357 14.2306 18.2357C12.605 18.2357 11.1885 17.1281 10.7965 15.5504Z"
        fill="black"/>
</svg>
