<svg width="33" height="36" viewBox="0 0 33 36" fill="none" xmlns="http://www.w3.org/2000/svg">
  <path fill-rule="evenodd" clip-rule="evenodd"
        d="M25.9615 0.538574H6.49992C5.94305 0.538574 5.41867 0.800764 5.08454 1.24627L0.307617 7.6155V34.154C0.307617 35.1311 1.09973 35.9232 2.07685 35.9232H30.3845C31.3617 35.9232 32.1538 35.1311 32.1538 34.154V7.6155L27.3768 1.24627C27.0427 0.800764 26.5183 0.538574 25.9615 0.538574ZM3.84602 11.154H28.6153V32.3847H3.84602V11.154ZM27.7306 7.6155L25.0768 4.07704H7.38448L4.73064 7.6155H27.7306ZM10.9229 18.2309V14.6924H7.38448V18.2309C7.38448 23.1165 11.345 27.077 16.2306 27.077C21.1162 27.077 25.0768 23.1165 25.0768 18.2309V14.6924H21.5383V18.2309C21.5383 21.1622 19.162 23.5386 16.2306 23.5386C13.2993 23.5386 10.9229 21.1622 10.9229 18.2309Z"
        fill="black"/>
</svg>
