<svg width="40" height="40" viewBox="0 0 40 40" fill="none" xmlns="http://www.w3.org/2000/svg">
  <path fill-rule="evenodd" clip-rule="evenodd"
        d="M26.2167 5L35 13.7833V26.2167L26.2167 35H13.7833L5 26.2167V13.7833L13.7833 5H26.2167ZM31.6663 24.8333V15.1667L24.833 8.33333H15.1663L8.33295 15.1667V24.8333L15.1663 31.6667H24.833L31.6663 24.8333ZM19.9996 28.3333C19.0791 28.3333 18.333 27.5871 18.333 26.6667C18.333 25.7462 19.0791 25 19.9996 25C20.9201 25 21.6663 25.7462 21.6663 26.6667C21.6663 27.5871 20.9201 28.3333 19.9996 28.3333ZM18.333 11.6667H21.6663V23.3333H18.333V11.6667Z"
        fill="#1D1D1D"/>
</svg>
