<svg width="30" height="22" viewBox="0 0 30 22" fill="none" xmlns="http://www.w3.org/2000/svg">
  <path
    d="M1.25 0H28.75C29.4375 0 30 0.529412 30 1.17647V18.8235C30 19.4706 29.4375 20 28.75 20H1.25C0.5625 20 0 19.4706 0 18.8235V1.17647C0 0.529412 0.5625 0 1.25 0Z"
    fill="#4361C3"/>
  <path
    d="M18.5938 6.25C21.0938 6.25 23.125 8.28125 23.125 10.7812C23.125 13.2812 21.0938 15.3125 18.5938 15.3125C16.0938 15.3125 14.0625 13.2812 14.0625 10.7812C14.0625 8.28125 16.0938 6.25 18.5938 6.25Z"
    fill="#FFAF38"/>
  <rect x="14.6875" y="8.4375" width="3.125" height="0.625" fill="#FFAF38"/>
  <path
    d="M11.4062 15.3125C8.90625 15.3125 6.875 13.2812 6.875 10.7812C6.875 8.28125 8.90625 6.25 11.4062 6.25C13.9062 6.25 15.9375 8.28125 15.9375 10.7812C15.9375 13.2812 13.9062 15.3125 11.4062 15.3125Z"
    fill="#EB3636"/>
  <path fill-rule="evenodd" clip-rule="evenodd"
        d="M18.75 8.4375H14.6875V9.0625H18.75V8.4375ZM14.6875 12.1875V12.8125H18.75V12.1875H14.6875ZM18.4375 10.3125H14.375V9.6875H18.4375V10.3125ZM14.375 11.5625H18.4375V10.9375H14.375V11.5625Z"
        fill="#FFAF38"/>
  <path opacity="0.05"
        d="M1.25 21.25H1.8125L30 1.8125V1.25C30 0.5625 29.4375 0 28.75 0H1.25C0.5625 0 0 0.5625 0 1.25V20C0 20.6875 0.5625 21.25 1.25 21.25Z"
        fill="white"/>
</svg>
