<svg width="30" height="20" viewBox="0 0 30 20" fill="none" xmlns="http://www.w3.org/2000/svg">
  <rect y="5.29419" width="30" height="9.41177" fill="#F9F9F9"/>
  <path d="M1.25 0H28.75C29.4375 0 30 0.529412 30 1.17647V5.29412H0V1.17647C0 0.529412 0.5625 0 1.25 0Z"
        fill="#09599E"/>
  <path
    d="M0 14.7058H30V18.8235C30 19.4705 29.4375 19.9999 28.75 19.9999H1.25C0.5625 19.9999 0 19.4705 0 18.8235V14.7058Z"
    fill="#E59703"/>
  <path opacity="0.05"
        d="M1.25 19.9706C0.5625 19.9706 0 19.4412 0 18.7941V1.17647C0 0.529412 0.5625 0 1.25 0H28.75C29.4375 0 30 0.529412 30 1.17647"
        fill="white"/>
  <path d="M11.5938 12.4706L12.5 7.5H13.9375L13.0312 12.4706H11.5938Z" fill="#00589F"/>
  <path
    d="M18.25 7.64704C17.9688 7.55881 17.5312 7.44116 16.9688 7.44116C15.5312 7.44116 14.5312 8.11763 14.5312 9.08822C14.5312 9.7941 15.25 10.2059 15.7812 10.4412C16.3438 10.6765 16.5312 10.8529 16.5312 11.0588C16.5312 11.3823 16.0938 11.5588 15.6562 11.5588C15.0938 11.5588 14.7812 11.4706 14.3125 11.2941L14.125 11.1765L13.9375 12.2941C14.2812 12.4412 14.9062 12.5588 15.5312 12.5588C17.0312 12.5588 18.0312 11.8823 18.0312 10.8529C18.0312 10.2941 17.6562 9.85293 16.8125 9.49999C16.3125 9.26469 16 9.11763 16 8.88234C16 8.67646 16.25 8.44116 16.8125 8.44116C17.2812 8.44116 17.625 8.5294 17.875 8.61763L18 8.67646L18.25 7.64704Z"
    fill="#00589F"/>
  <path fill-rule="evenodd" clip-rule="evenodd"
        d="M20.8125 7.5293H21.9375L23.125 12.4999H21.7812C21.7812 12.4999 21.625 11.9411 21.5938 11.7646H19.75C19.6875 11.8822 19.4375 12.4999 19.4375 12.4999H17.9375L20.0625 7.94106C20.2188 7.61753 20.4688 7.5293 20.8125 7.5293ZM20.7188 9.32341C20.7188 9.32341 20.2812 10.4116 20.1562 10.7058V10.7352H21.3438C21.2812 10.4705 21 9.294 21 9.294L20.9062 8.85283C20.8438 9.0293 20.7188 9.32341 20.7188 9.32341Z"
        fill="#00589F"/>
  <path
    d="M10.375 7.52941L8.96875 10.9118L8.8125 10.2353C8.5625 9.44118 7.71875 8.58824 6.8125 8.14706L8.125 12.4706H9.65625L11.9375 7.5H10.375"
    fill="#00589F"/>
  <path
    d="M7.65625 7.5H5.34375L5.3125 7.61765C7.125 8.02941 8.3125 9.02941 8.8125 10.2059L8.3125 7.94118C8.25 7.61765 7.96875 7.52941 7.65625 7.5Z"
    fill="#F9A51A"/>
</svg>
