<svg width="30" height="20" viewBox="0 0 30 20" fill="none" xmlns="http://www.w3.org/2000/svg">
  <path
    d="M1.25 0H28.75C29.4375 0 30 0.529412 30 1.17647V18.8235C30 19.4706 29.4375 20 28.75 20H1.25C0.5625 20 0 19.4706 0 18.8235V1.17647C0 0.529412 0.5625 0 1.25 0Z"
    fill="#2AA0D0"/>
  <path fill-rule="evenodd" clip-rule="evenodd"
        d="M16.875 7.64709H20.625C20.7813 7.64709 20.9375 7.79415 20.9375 7.94121V8.82356C20.9375 9.00003 20.8125 9.11768 20.625 9.11768H18.4375V9.41179H20.5625C20.75 9.41179 20.875 9.52944 20.875 9.70591V10.5883C20.875 10.7647 20.75 10.8824 20.5625 10.8824H18.4375V11.1765H20.625C20.8125 11.1765 20.9375 11.2941 20.9375 11.4706V12.353C20.9375 12.5294 20.8125 12.6471 20.625 12.6471H16.875C16.7188 12.6471 16.5625 12.5294 16.5625 12.3824C16.5625 12.5294 16.4063 12.6471 16.25 12.6471H15C14.8125 12.6471 14.6875 12.5294 14.6875 12.353V10.6471L13.875 12.4706C13.8438 12.5883 13.7188 12.6471 13.5938 12.6471H12.625C12.5 12.6471 12.4063 12.5883 12.3438 12.4706L11.5625 10.6765V12.353C11.5625 12.5294 11.4375 12.6471 11.25 12.6471H8.75002C8.62502 12.6471 8.53127 12.5883 8.46877 12.4706L8.03127 11.4706H6.31252L5.84377 12.4706C5.81252 12.5883 5.68752 12.6471 5.56252 12.6471H4.21877C4.12502 12.6471 4.03127 12.5883 3.96877 12.5C3.90627 12.4118 3.90627 12.2941 3.93752 12.2059L6.09377 7.79415C6.15627 7.6765 6.25002 7.61768 6.37502 7.61768H8.03127C8.15627 7.61768 8.25002 7.6765 8.31252 7.79415L9.68752 10.6765V7.91179C9.68752 7.73532 9.81252 7.61768 10 7.61768H11.625C11.75 7.61768 11.8438 7.70591 11.9063 7.79415L13.1563 10.1765L14.1563 7.82356C14.1875 7.70591 14.3125 7.64709 14.4375 7.64709H16.25C16.4063 7.64709 16.5625 7.76473 16.5625 7.91179C16.5625 7.76473 16.7188 7.64709 16.875 7.64709ZM7.18752 9.41179L6.90627 10H7.46877L7.18752 9.41179Z"
        fill="#2AA0D0"/>
  <path fill-rule="evenodd" clip-rule="evenodd"
        d="M24.5938 10.1764L25.8438 11.4411C25.9062 11.4999 25.9375 11.5587 25.9375 11.647V12.3529C25.9375 12.4411 25.9062 12.4999 25.8438 12.5587C25.7812 12.6176 25.7188 12.647 25.625 12.647H24.8125C24.75 12.647 24.6562 12.6176 24.5938 12.5587L23.4062 11.3823L22.2188 12.5587C22.1562 12.6176 22.0938 12.647 22 12.647H21.25C21.0625 12.647 20.9375 12.5293 20.9375 12.3529V7.94109C20.9375 7.76462 21.0625 7.64697 21.25 7.64697H22.0938C22.1875 7.64697 22.25 7.67638 22.3125 7.76462L23.4375 8.9705L24.5312 7.73521C24.5938 7.67638 24.6875 7.64697 24.7812 7.64697H25.625C25.7188 7.64697 25.7812 7.67638 25.8438 7.73521C25.9062 7.79403 25.9375 7.85286 25.9375 7.94109V8.7058C25.9375 8.79403 25.9062 8.85285 25.8438 8.91168L24.5938 10.1764ZM21.5625 9.44109V10.8823L22.2812 10.147L21.5625 9.44109Z"
        fill="#2AA0D0"/>
  <path d="M6.4375 10.294H7.9375L7.1875 8.70581L6.4375 10.294Z" fill="white"/>
  <path d="M21.25 11.647L22.7188 10.1764L21.25 8.70581V11.647Z" fill="white"/>
  <path fill-rule="evenodd" clip-rule="evenodd"
        d="M25.0313 10.1766L26.0938 11.2354C26.1875 11.353 26.25 11.5001 26.25 11.6471V12.353C26.25 12.5001 26.1875 12.6471 26.0625 12.7648C25.9375 12.8824 25.7813 12.9413 25.625 12.9413H24.875C24.6875 12.9413 24.5313 12.8824 24.4063 12.7648L23.4375 11.7942L22.4688 12.7648C22.3438 12.8824 22.1563 12.9413 22 12.9413H21.25C21.125 12.9413 21.0313 12.9119 20.9375 12.853C20.8438 12.9119 20.75 12.9413 20.625 12.9413H16.875C16.75 12.9413 16.6563 12.9119 16.5625 12.853C16.4688 12.9119 16.375 12.9413 16.25 12.9413H15C14.6563 12.9413 14.375 12.6766 14.375 12.353V12.206L14.1875 12.6471C14.0625 12.853 13.8438 13.0001 13.5938 13.0001H12.625C12.375 13.0001 12.1563 12.853 12.0625 12.6471L11.875 12.206V12.4119C11.875 12.7354 11.5938 13.0001 11.25 13.0001H8.75003C8.46878 13.0001 8.25003 12.853 8.15628 12.6177L7.81253 11.7942H6.50003L6.12503 12.6177C6.03128 12.8236 5.81253 12.9707 5.56253 12.9707H4.21878C4.00003 12.9707 3.81253 12.8824 3.68753 12.706C3.59378 12.5295 3.56253 12.3236 3.65628 12.1471L5.81253 7.73538C5.90628 7.5295 6.12503 7.38244 6.37503 7.38244H8.03128C8.28128 7.38244 8.50003 7.5295 8.59378 7.73538L9.37503 9.35303V7.97067C9.37503 7.64714 9.65628 7.38244 10 7.38244H11.5938C11.8438 7.38244 12.0625 7.50009 12.1563 7.70597L13.0938 9.50009L13.8438 7.73538C13.9375 7.50009 14.1875 7.35303 14.4375 7.35303H16.25C16.375 7.35303 16.4688 7.38244 16.5625 7.44126C16.6563 7.38244 16.75 7.35303 16.875 7.35303H20.625C20.75 7.35303 20.8438 7.38244 20.9375 7.44126C21.0313 7.38244 21.125 7.35303 21.25 7.35303H22.0938C22.2813 7.35303 22.4375 7.44126 22.5625 7.55891L23.4375 8.50009L24.3125 7.55891C24.4375 7.41185 24.5938 7.35303 24.7813 7.35303H25.625C25.7813 7.35303 25.9375 7.41185 26.0625 7.5295C26.1875 7.64715 26.25 7.7942 26.25 7.94126V8.70597C26.25 8.85303 26.1875 9.00009 26.0938 9.11773L25.0313 10.1766ZM15 12.353H16.25V7.94126H14.4375L13.1875 10.9119L11.625 7.94126H10.0313V12.0589L8.06253 7.94126H6.40628L4.25003 12.353H5.59378L6.12503 11.1766H8.25003L8.75003 12.353H11.25V9.17656L12.625 12.353H13.5938L15 9.14715V12.353ZM20.625 8.82362H18.125V9.70597H20.5625V10.5883H18.125V11.4707H20.625V12.353H16.875V7.94126H20.625V8.82362ZM23.4375 10.9413L24.875 12.353H25.625V11.6471L24.1563 10.1766L25.625 8.70597V7.94126H24.7813L23.4375 9.41185L22.0938 7.94126H21.25V12.353H22L23.4375 10.9413Z"
        fill="white"/>
  <path opacity="0.05"
        d="M1.25 20H1.8125L30 1.70588V1.17647C30 0.529412 29.4375 0 28.75 0H1.25C0.5625 0 0 0.529412 0 1.17647V18.8235C0 19.4706 0.5625 20 1.25 20Z"
        fill="white"/>
</svg>
