<svg data-name="Layer 1" xmlns="http://www.w3.org/2000/svg" xmlns:xlink="http://www.w3.org/1999/xlink" width="840" height="726.85"><defs><linearGradient id="a" x1="432" y1="245.78" x2="432" y2="18.85" gradientUnits="userSpaceOnUse"><stop offset="0" stop-color="gray" stop-opacity=".25"/><stop offset=".54" stop-color="gray" stop-opacity=".12"/><stop offset="1" stop-color="gray" stop-opacity=".1"/></linearGradient><linearGradient id="b" x1="453.55" y1="1916.01" x2="453.55" y2="1730.58" gradientTransform="rotate(18.6 4177.797 1675.753)" xlink:href="#a"/><linearGradient id="c" y1="268.56" y2="249.03" xlink:href="#a"/><linearGradient id="d" y1="258.09" y2="103.27" xlink:href="#a"/></defs><ellipse cx="432" cy="132.31" rx="146.46" ry="113.46" fill="url(#a)" opacity=".8"/><ellipse cx="432" cy="132.31" rx="143.21" ry="110.94" fill="#6c63ff"/><path d="M311.94 144.64c0-61.27 64.12-110.94 143.21-110.94a175.52 175.52 0 0 1 71.35 14.73c-25.17-17-58.1-27.34-94.14-27.34-79.09 0-143.21 49.67-143.21 110.94 0 41.14 28.91 77.06 71.85 96.21-30.06-20.33-49.06-50.24-49.06-83.6z" fill="#fff" opacity=".1"/><path fill="#6c63ff" opacity=".2" d="M432 176.9l158.76 274.98 158.76 274.97H114.48l158.76-274.97L432 176.9z"/><path d="M649.67 652.79L662 616.2a62.65 62.65 0 0 0-23.2-70.89l.1-.06a61.91 61.91 0 0 0-15.79-8l-.17-.05-.19-.07a61.93 61.93 0 0 0-16.9-3.18q-3.07-.14-6.12 0a62.33 62.33 0 0 0-10.48 1.45q-1.47.33-2.92.74t-2.88.87q-2.85.94-5.6 2.15-1.37.6-2.72 1.27a63.19 63.19 0 0 0-7.75 4.56q-1.24.85-2.43 1.76a61.94 61.94 0 0 0-21.24 29.6l-19.36 57.55a61.83 61.83 0 0 0-2.68 28.12q.3 2.18.74 4.32t1 4.24q.39 1.4.85 2.78.69 2.07 1.52 4.08.55 1.34 1.16 2.66 1.23 2.63 2.69 5.14t3.15 4.88q1.27 1.77 2.66 3.46 1.85 2.25 3.92 4.33a61.81 61.81 0 0 0 21 13.88l.34.14a21.53 21.53 0 0 1 1.4-2.18c3-4.1 8.22-7 13.19-5.92.36.08.72.18 1.08.3 2.52.89 5 2.47 7.43 3.26a6.66 6.66 0 0 0 5.61-.07c4.85-2.59 3.05-10.76 7.23-14.35a6.22 6.22 0 0 1 .6-.45l-.16-.24c3.21-2 7.68-.67 11.39.63 4 1.4 9.22 2.35 12-.92 1.88-2.24 1.75-5.65 3.53-8 2.08-2.7 6-3 9.39-2.52 1.79.28 12.84 13 21.39 8.77-13.78-11.7-6.19-34.24-5.11-37.45z" transform="translate(-180 -86.57)" fill="url(#b)" opacity=".3"/><path d="M383.21 620.21c2.92-4 7.93-6.8 12.73-5.71s9.35 5.66 13.63 3.37c4.68-2.5 2.95-10.39 7-13.84 3.13-2.68 7.87-1.3 11.76.05s8.9 2.27 11.55-.88c1.81-2.16 1.69-5.45 3.41-7.69 2-2.6 5.82-2.93 9.06-2.43 1.73.27 12.39 12.56 20.64 8.47-13.35-11.36-6-33.12-5-36.21l11.88-35.3A60.39 60.39 0 0 0 442 453.77a60.39 60.39 0 0 0-76.27 37.87L347 547.16a60.41 60.41 0 0 0 34.83 75.15 20.78 20.78 0 0 1 1.38-2.1z" fill="#fff"/><circle cx="585.35" cy="572.65" r="6.51" transform="rotate(-71.4 435.163 654.626)" opacity=".2"/><circle cx="622.37" cy="585.11" r="6.51" transform="rotate(-71.4 472.185 667.08)" opacity=".2"/><ellipse cx="595.55" cy="603.56" rx="9.76" ry="6.51" transform="rotate(-71.4 445.368 685.53)" fill="#e0e0e0"/><circle cx="732.53" cy="574.09" r="9.76" transform="rotate(-71.4 582.352 656.063)" fill="#fff"/><circle cx="763.45" cy="558.74" r="4.88" transform="rotate(-71.4 613.266 640.704)" fill="#fff"/><path fill="url(#c)" d="M334.36 249.03h195.28v19.53H334.36z" opacity=".8"/><path fill="#e0e0e0" d="M334.36 245.78h195.28v19.53H334.36z"/><path d="M569.52 99.43a87.33 87.33 0 0 1 2.8 21.92c0 61.27-64.12 110.94-143.21 110.94-64.73.04-119.42-33.22-137.11-78.86 13.14 50.77 71 89 140.41 89 79.09 0 143.21-49.67 143.21-110.94a88.06 88.06 0 0 0-6.1-32.06z" opacity=".1"/><ellipse cx="432" cy="180.68" rx="296.18" ry="77.41" fill="url(#d)" opacity=".8"/><path d="M432 105.83c-158.18 0-286.42 33.52-286.42 74.86h572.84c0-41.35-128.24-74.86-286.42-74.86z" fill="#fff"/><path d="M432 255.54c158.18 0 286.42-33.52 286.42-74.86H145.58c0 41.35 128.24 74.86 286.42 74.86z" fill="#fff"/><path d="M432 255.54c158.18 0 286.42-33.52 286.42-74.86H145.58c0 41.35 128.24 74.86 286.42 74.86z" opacity=".05"/><rect x="295.3" y="161.15" width="273.4" height="39.06" rx="17.22" ry="17.22" opacity=".05"/><path d="M133.89 57.81a3.67 3.67 0 0 1-2-4.44 1.77 1.77 0 0 0 .08-.41 1.84 1.84 0 0 0-3.31-1.22 1.77 1.77 0 0 0-.2.36 3.67 3.67 0 0 1-4.44 2 1.77 1.77 0 0 0-.41-.08 1.84 1.84 0 0 0-1.22 3.31 1.77 1.77 0 0 0 .36.2 3.67 3.67 0 0 1 2 4.44 1.77 1.77 0 0 0-.08.41 1.84 1.84 0 0 0 3.31 1.22 1.77 1.77 0 0 0 .2-.36 3.67 3.67 0 0 1 4.44-2 1.77 1.77 0 0 0 .41.08 1.84 1.84 0 0 0 1.22-3.31 1.77 1.77 0 0 0-.36-.2zm509 306a3.67 3.67 0 0 1-2-4.44 1.77 1.77 0 0 0 .08-.41 1.84 1.84 0 0 0-3.31-1.22 1.77 1.77 0 0 0-.2.36 3.67 3.67 0 0 1-4.44 2 1.77 1.77 0 0 0-.41-.08 1.84 1.84 0 0 0-1.22 3.31 1.77 1.77 0 0 0 .36.2 3.67 3.67 0 0 1 2 4.44 1.77 1.77 0 0 0-.08.41 1.84 1.84 0 0 0 3.31 1.22 1.77 1.77 0 0 0 .2-.36 3.67 3.67 0 0 1 4.44-2 1.77 1.77 0 0 0 .41.08 1.84 1.84 0 0 0 1.22-3.31 1.77 1.77 0 0 0-.36-.2zm-562 142a3.67 3.67 0 0 1-2-4.44 1.77 1.77 0 0 0 .08-.41 1.84 1.84 0 0 0-3.31-1.22 1.77 1.77 0 0 0-.2.36 3.67 3.67 0 0 1-4.44 2 1.77 1.77 0 0 0-.41-.08 1.84 1.84 0 0 0-1.22 3.31 1.77 1.77 0 0 0 .36.2 3.67 3.67 0 0 1 2 4.44 1.77 1.77 0 0 0-.08.41 1.84 1.84 0 0 0 3.31 1.22 1.77 1.77 0 0 0 .2-.36 3.67 3.67 0 0 1 4.44-2 1.77 1.77 0 0 0 .41.08 1.84 1.84 0 0 0 1.22-3.31 1.77 1.77 0 0 0-.36-.2zm-55-331a3.67 3.67 0 0 1-2-4.44 1.77 1.77 0 0 0 .08-.41 1.84 1.84 0 0 0-3.31-1.22 1.77 1.77 0 0 0-.2.36 3.67 3.67 0 0 1-4.44 2 1.77 1.77 0 0 0-.41-.08 1.84 1.84 0 0 0-1.22 3.31 1.77 1.77 0 0 0 .36.2 3.67 3.67 0 0 1 2 4.44 1.77 1.77 0 0 0-.08.41 1.84 1.84 0 0 0 3.31 1.22 1.77 1.77 0 0 0 .2-.36 3.67 3.67 0 0 1 4.44-2 1.77 1.77 0 0 0 .41.08 1.84 1.84 0 0 0 1.22-3.31 1.77 1.77 0 0 0-.36-.2zm607-168a3.67 3.67 0 0 1-2-4.44 1.77 1.77 0 0 0 .08-.41 1.84 1.84 0 0 0-3.31-1.22 1.77 1.77 0 0 0-.2.36 3.67 3.67 0 0 1-4.44 2 1.77 1.77 0 0 0-.41-.08 1.84 1.84 0 0 0-1.27 3.41 1.77 1.77 0 0 0 .36.2 3.67 3.67 0 0 1 2 4.44 1.77 1.77 0 0 0-.08.41 1.84 1.84 0 0 0 3.38 1.18 1.77 1.77 0 0 0 .2-.36 3.67 3.67 0 0 1 4.44-2 1.77 1.77 0 0 0 .41.08 1.84 1.84 0 0 0 1.22-3.31 1.77 1.77 0 0 0-.38-.26z" fill="#4d8af0" opacity=".5"/><g opacity=".5" fill="#47e6b1"><path d="M110 257.85h3v17h-3z"/><path d="M120 264.85v3h-17v-3z"/></g><g opacity=".5" fill="#47e6b1"><path d="M830 177.85h3v17h-3z"/><path d="M840 184.85v3h-17v-3z"/></g><g opacity=".5" fill="#47e6b1"><path d="M730 456.85h3v17h-3z"/><path d="M740 463.85v3h-17v-3z"/></g><circle cx="723" cy="81.85" r="6" fill="#f55f44" opacity=".5"/><circle cx="6" cy="12.85" r="6" fill="#f55f44" opacity=".5"/><circle cx="186" cy="357.85" r="6" fill="#f55f44" opacity=".5"/></svg>