<svg id="svg" version="1.1" xmlns="http://www.w3.org/2000/svg" xmlns:xlink="http://www.w3.org/1999/xlink" width="400" height="404.04040404040404" viewBox="0, 0, 400,404.04040404040404"><g id="svgg"><path id="path0" d="M188.000 104.600 C 188.000 104.930,187.809 105.200,187.576 105.200 C 187.343 105.200,187.251 105.359,187.371 105.554 C 187.492 105.748,185.658 105.947,183.295 105.995 C 177.079 106.122,176.372 106.199,176.013 106.779 C 175.835 107.067,175.491 107.180,175.249 107.030 C 174.973 106.859,174.898 106.989,175.047 107.379 C 175.247 107.899,174.884 108.000,172.816 108.000 C 170.160 108.000,168.800 108.479,168.800 109.414 C 168.800 109.873,168.193 110.000,166.008 110.000 C 163.363 110.000,163.202 110.053,162.964 111.000 C 162.739 111.896,162.510 112.000,160.757 112.000 C 159.680 112.000,158.800 112.180,158.800 112.400 C 158.800 112.620,158.459 112.800,158.043 112.800 C 157.626 112.800,157.182 113.070,157.055 113.400 C 156.929 113.730,156.383 114.000,155.843 114.000 C 155.303 114.000,154.353 114.423,153.731 114.939 C 153.109 115.456,152.105 115.999,151.500 116.147 C 150.792 116.319,150.400 116.680,150.400 117.156 C 150.400 117.816,147.928 118.693,146.714 118.464 C 146.557 118.434,146.510 118.632,146.610 118.905 C 146.938 119.799,146.199 120.366,144.550 120.484 C 143.177 120.582,142.958 120.717,143.127 121.363 C 143.252 121.840,143.166 122.026,142.897 121.860 C 142.661 121.714,142.405 121.784,142.328 122.015 C 142.251 122.246,141.798 122.465,141.322 122.501 C 140.845 122.537,140.464 122.664,140.475 122.783 C 140.570 123.832,140.263 124.364,139.500 124.472 C 138.922 124.554,138.554 124.922,138.472 125.500 C 138.381 126.144,138.075 126.400,137.396 126.400 C 136.874 126.400,136.331 126.589,136.188 126.819 C 136.012 127.104,135.740 127.082,135.342 126.752 C 135.019 126.484,134.786 126.430,134.825 126.632 C 135.004 127.573,134.753 128.400,134.289 128.400 C 134.008 128.400,133.288 128.959,132.688 129.642 C 132.048 130.372,131.359 130.793,131.019 130.663 C 130.652 130.522,130.515 130.633,130.643 130.969 C 130.906 131.654,129.654 132.906,128.969 132.643 C 128.650 132.521,128.521 132.650,128.643 132.969 C 128.917 133.681,127.642 134.902,126.915 134.623 C 126.559 134.486,126.403 134.594,126.513 134.900 C 126.791 135.678,126.003 136.887,125.374 136.645 C 125.064 136.526,124.846 136.557,124.890 136.714 C 125.078 137.386,123.905 138.849,123.349 138.636 C 123.024 138.511,122.861 138.575,122.986 138.777 C 123.111 138.979,123.030 139.258,122.807 139.396 C 122.583 139.534,122.400 140.254,122.400 140.996 C 122.400 142.090,122.230 142.368,121.500 142.472 C 120.930 142.553,120.554 142.921,120.475 143.475 C 120.398 144.021,120.021 144.398,119.475 144.475 C 118.848 144.565,118.563 144.923,118.470 145.739 C 118.367 146.639,118.178 146.835,117.569 146.676 C 117.146 146.565,116.900 146.638,117.023 146.837 C 117.146 147.037,117.072 147.200,116.859 147.200 C 116.645 147.200,116.349 147.920,116.200 148.800 C 115.996 150.008,115.744 150.400,115.172 150.400 C 114.708 150.400,114.323 150.769,114.175 151.356 C 114.043 151.882,113.500 152.691,112.968 153.153 C 112.288 153.744,112.000 154.412,112.000 155.397 C 112.000 156.169,111.807 156.800,111.571 156.800 C 110.717 156.800,110.000 157.974,110.000 159.371 C 110.000 160.157,109.807 160.800,109.571 160.800 C 108.751 160.800,108.000 161.951,108.000 163.207 C 108.000 163.981,107.691 164.729,107.203 165.136 C 106.341 165.855,106.076 166.845,106.030 169.524 C 106.013 170.472,105.856 171.158,105.681 171.050 C 104.841 170.531,104.287 171.682,104.097 174.341 C 103.914 176.894,103.815 177.163,103.079 177.086 C 102.309 177.005,102.255 177.254,102.110 181.600 C 101.932 186.921,101.854 187.279,100.905 187.119 C 100.242 187.007,100.195 188.005,100.113 203.900 L 100.027 220.800 101.013 220.800 C 101.950 220.800,102.531 225.935,102.009 229.600 C 101.962 229.930,102.046 230.080,102.195 229.933 C 102.960 229.182,103.938 231.239,104.067 233.867 C 104.183 236.251,104.315 236.650,105.100 236.995 C 105.955 237.370,106.230 238.615,106.103 241.527 C 106.090 241.816,106.167 241.966,106.273 241.860 C 106.850 241.283,108.000 243.342,108.000 244.951 C 108.000 246.719,108.769 247.914,109.582 247.411 C 109.847 247.247,110.000 247.759,110.000 248.805 C 110.000 250.518,110.644 251.585,111.504 251.299 C 111.828 251.191,112.000 251.565,112.000 252.381 C 112.000 253.754,113.081 255.721,113.644 255.373 C 113.840 255.252,114.000 255.610,114.000 256.169 C 114.000 256.907,114.262 257.250,114.960 257.426 C 115.728 257.618,115.971 258.011,116.178 259.395 C 116.385 260.775,116.629 261.171,117.391 261.362 C 117.980 261.510,118.393 261.945,118.472 262.501 C 118.554 263.078,118.922 263.446,119.500 263.528 C 120.186 263.625,120.400 263.919,120.400 264.762 C 120.400 265.489,120.815 266.238,121.614 266.949 C 122.282 267.544,122.722 268.203,122.591 268.414 C 122.461 268.624,122.806 269.002,123.357 269.253 C 123.908 269.504,124.413 270.090,124.479 270.555 C 124.553 271.070,124.941 271.449,125.475 271.525 C 126.021 271.602,126.398 271.979,126.475 272.525 C 126.553 273.070,126.930 273.447,127.475 273.525 C 128.021 273.602,128.398 273.979,128.475 274.525 C 128.553 275.070,128.930 275.447,129.475 275.525 C 130.021 275.602,130.398 275.979,130.475 276.525 C 130.552 277.065,130.930 277.447,131.462 277.523 C 131.987 277.598,132.421 278.028,132.570 278.623 C 132.718 279.211,133.105 279.600,133.543 279.600 C 133.944 279.600,134.477 280.050,134.727 280.600 C 134.991 281.179,135.518 281.600,135.979 281.600 C 136.531 281.600,136.703 281.788,136.538 282.216 C 136.408 282.555,136.459 282.799,136.651 282.759 C 137.530 282.572,140.376 284.263,140.587 285.098 C 140.712 285.591,140.946 285.975,141.107 285.950 C 142.219 285.779,142.863 286.060,142.647 286.621 C 142.516 286.962,142.572 287.141,142.770 287.018 C 142.969 286.895,143.195 286.984,143.272 287.215 C 143.388 287.564,144.293 287.806,146.100 287.972 C 146.265 287.988,146.400 288.264,146.400 288.586 C 146.400 288.908,146.805 289.384,147.300 289.644 C 147.795 289.904,148.344 290.360,148.519 290.658 C 148.695 290.955,149.646 291.401,150.632 291.650 C 151.619 291.898,152.601 292.428,152.814 292.826 C 153.054 293.275,153.869 293.651,154.954 293.814 C 156.248 294.008,156.816 294.318,157.127 294.998 C 157.357 295.505,157.783 295.910,158.073 295.897 C 161.473 295.748,162.719 296.025,162.959 296.979 C 163.175 297.841,163.457 297.973,165.302 298.079 C 166.456 298.146,167.339 298.364,167.264 298.564 C 166.935 299.447,168.432 299.886,171.992 299.950 C 174.609 299.997,174.800 300.062,175.032 300.987 C 175.169 301.529,175.397 301.958,175.540 301.939 C 177.867 301.635,184.847 302.104,185.341 302.598 C 185.670 302.928,186.415 303.378,186.996 303.598 C 188.717 304.253,242.587 304.139,243.134 303.480 C 243.920 302.532,243.768 270.150,242.976 269.846 C 242.623 269.711,231.713 269.600,218.731 269.600 C 195.442 269.600,195.119 269.589,194.464 268.782 C 193.675 267.811,192.747 267.664,187.195 267.628 C 183.231 267.602,182.967 267.548,182.595 266.700 C 182.254 265.923,181.845 265.782,179.600 265.666 C 178.170 265.593,176.939 265.365,176.864 265.159 C 176.515 264.198,175.406 263.600,173.971 263.600 C 172.983 263.600,172.437 263.427,172.500 263.133 C 172.631 262.519,170.880 261.613,169.547 261.606 C 168.838 261.602,168.426 261.342,168.287 260.811 C 168.141 260.253,167.607 259.947,166.462 259.764 C 165.217 259.564,164.815 259.308,164.722 258.652 C 164.637 258.058,164.267 257.762,163.500 257.673 C 162.850 257.599,162.400 257.304,162.400 256.953 C 162.400 256.626,161.860 256.170,161.200 255.940 C 160.540 255.710,160.000 255.298,160.000 255.025 C 160.000 254.449,158.320 253.600,157.181 253.600 C 156.615 253.600,156.400 253.325,156.400 252.600 C 156.400 251.800,156.200 251.600,155.400 251.600 C 154.600 251.600,154.400 251.400,154.400 250.600 C 154.400 249.800,154.200 249.600,153.400 249.600 C 152.600 249.600,152.400 249.400,152.400 248.600 C 152.400 247.808,152.198 247.600,151.428 247.600 C 150.724 247.600,150.420 247.351,150.328 246.700 C 150.246 246.122,149.878 245.754,149.300 245.672 C 148.595 245.572,148.400 245.284,148.400 244.346 C 148.400 242.850,147.756 241.600,146.986 241.600 C 146.664 241.600,146.400 241.236,146.400 240.791 C 146.400 240.317,145.987 239.794,145.400 239.527 C 144.457 239.098,144.260 238.549,144.256 236.340 C 144.255 235.978,144.046 235.761,143.792 235.859 C 143.198 236.086,142.582 235.302,142.244 233.887 C 142.098 233.274,141.623 232.469,141.189 232.098 C 140.755 231.726,140.400 231.047,140.400 230.589 C 140.400 230.130,139.950 229.145,139.400 228.400 C 138.736 227.500,138.400 226.521,138.400 225.484 C 138.400 224.107,137.491 221.773,136.730 221.195 C 136.582 221.082,136.411 219.423,136.352 217.508 C 136.246 214.130,135.894 213.284,134.700 213.536 C 134.535 213.571,134.400 209.390,134.400 204.243 L 134.400 194.887 135.398 194.636 C 135.946 194.499,136.375 194.254,136.350 194.093 C 135.929 191.352,136.491 186.887,137.303 186.517 C 138.082 186.162,138.223 185.754,138.326 183.553 C 138.420 181.529,138.617 180.867,139.276 180.358 C 139.733 180.005,140.229 179.015,140.378 178.158 C 140.527 177.301,140.848 176.640,141.090 176.688 C 141.595 176.790,142.400 174.733,142.400 173.340 C 142.400 172.781,142.638 172.400,142.986 172.400 C 143.717 172.400,144.400 171.171,144.400 169.854 C 144.400 169.123,144.641 168.821,145.300 168.728 C 145.867 168.647,146.246 168.279,146.324 167.730 C 146.392 167.252,146.887 166.573,147.424 166.221 C 147.961 165.869,148.400 165.321,148.400 165.004 C 148.400 164.686,148.805 164.195,149.300 163.913 C 149.795 163.631,150.218 163.175,150.240 162.900 C 150.262 162.625,150.307 161.950,150.340 161.400 C 150.387 160.616,150.616 160.400,151.400 160.400 C 152.200 160.400,152.400 160.200,152.400 159.400 C 152.400 158.600,152.600 158.400,153.400 158.400 C 154.200 158.400,154.400 158.200,154.400 157.400 C 154.400 156.600,154.600 156.400,155.400 156.400 C 156.194 156.400,156.400 156.198,156.400 155.423 C 156.400 154.560,156.598 154.432,158.100 154.323 C 159.413 154.228,159.890 153.995,160.195 153.300 C 160.412 152.805,160.885 152.400,161.246 152.400 C 161.940 152.400,162.722 151.670,162.746 151.000 C 162.754 150.780,163.353 150.479,164.077 150.331 C 164.802 150.182,165.643 149.687,165.946 149.231 C 166.249 148.774,166.800 148.400,167.169 148.400 C 168.056 148.400,168.789 147.636,168.535 146.975 C 168.388 146.591,168.862 146.413,170.266 146.323 C 171.791 146.226,172.280 146.019,172.576 145.343 C 172.876 144.661,173.386 144.450,175.079 144.310 C 176.476 144.194,177.514 143.852,178.103 143.315 C 178.690 142.779,179.752 142.428,181.175 142.299 C 182.752 142.157,183.538 141.869,184.039 141.252 C 185.142 139.889,212.881 139.917,213.986 141.282 C 214.588 142.025,215.232 142.199,218.050 142.382 C 219.893 142.502,221.403 142.780,221.406 143.000 C 221.421 143.954,222.160 144.400,223.729 144.400 C 225.089 144.400,225.486 144.572,225.805 145.300 C 226.095 145.962,226.597 146.233,227.700 146.324 C 228.525 146.392,229.200 146.643,229.200 146.880 C 229.200 147.623,230.545 148.374,231.900 148.387 C 232.934 148.397,233.200 148.565,233.200 149.210 C 233.200 149.790,233.541 150.088,234.400 150.260 C 235.060 150.392,235.600 150.645,235.600 150.821 C 235.600 151.582,236.962 152.400,238.229 152.400 C 239.425 152.400,239.600 152.528,239.600 153.400 C 239.600 154.200,239.800 154.400,240.600 154.400 C 241.400 154.400,241.600 154.600,241.600 155.400 C 241.600 156.200,241.800 156.400,242.600 156.400 C 243.400 156.400,243.600 156.600,243.600 157.400 C 243.600 158.192,243.802 158.400,244.572 158.400 C 245.276 158.400,245.580 158.649,245.672 159.300 C 245.754 159.878,246.122 160.246,246.700 160.328 C 247.349 160.420,247.600 160.724,247.600 161.420 C 247.600 162.109,247.879 162.455,248.577 162.630 C 249.172 162.779,249.602 163.213,249.677 163.738 C 249.754 164.279,250.135 164.648,250.700 164.728 C 251.334 164.818,251.615 165.143,251.650 165.828 C 251.745 167.670,251.803 167.801,252.700 168.195 C 253.233 168.429,253.600 168.941,253.600 169.451 C 253.600 170.037,253.920 170.394,254.600 170.564 C 255.400 170.765,255.606 171.074,255.628 172.108 C 255.660 173.562,256.088 174.874,256.516 174.830 C 257.413 174.736,257.565 174.955,257.677 176.500 C 257.772 177.813,258.005 178.290,258.700 178.595 C 259.553 178.969,259.934 180.854,259.621 183.140 C 259.580 183.437,259.739 183.562,259.973 183.417 C 260.352 183.182,260.573 183.675,260.452 184.486 C 260.429 184.643,260.677 184.668,261.005 184.543 C 261.494 184.355,261.612 184.822,261.667 187.157 C 261.703 188.721,261.748 190.315,261.767 190.700 C 261.805 191.505,262.544 192.400,263.171 192.400 C 263.474 192.400,263.610 208.374,263.633 246.700 C 263.664 297.545,263.724 303.057,264.259 303.593 C 264.773 304.108,297.332 304.034,297.660 303.517 C 297.840 303.233,297.991 281.862,297.994 256.026 L 298.000 209.052 298.857 208.140 C 300.071 206.847,300.048 202.589,298.822 201.730 C 298.041 201.184,297.998 200.749,297.960 193.077 C 297.917 184.354,297.733 182.933,296.673 183.118 C 296.092 183.219,295.992 182.795,295.940 180.018 C 295.907 178.248,295.862 176.575,295.840 176.300 C 295.790 175.676,294.714 174.806,294.304 175.059 C 294.069 175.204,293.782 171.255,293.934 169.957 C 293.949 169.824,293.520 169.478,292.981 169.190 C 292.088 168.712,291.646 166.808,291.945 164.723 C 291.967 164.571,291.538 164.095,290.992 163.665 C 290.447 163.236,290.000 162.531,290.000 162.098 C 290.000 161.666,289.595 160.702,289.100 159.956 C 288.014 158.319,287.066 155.740,287.371 155.247 C 287.492 155.051,287.294 154.915,286.931 154.945 C 286.500 154.981,286.148 154.542,285.920 153.686 C 285.686 152.809,285.358 152.410,284.934 152.486 C 284.485 152.567,284.135 152.045,283.737 150.700 C 283.397 149.550,282.944 148.800,282.588 148.800 C 282.074 148.800,281.798 148.056,281.956 147.091 C 281.984 146.920,281.465 146.673,280.803 146.541 C 280.085 146.397,279.600 146.049,279.600 145.678 C 279.600 144.714,278.679 142.400,278.296 142.400 C 278.107 142.400,278.081 142.608,278.238 142.862 C 278.415 143.148,278.348 143.215,278.062 143.038 C 277.808 142.881,277.600 142.223,277.600 141.576 C 277.600 140.929,277.465 140.421,277.300 140.447 C 276.252 140.613,275.639 140.285,275.528 139.500 C 275.447 138.930,275.079 138.554,274.525 138.475 C 273.979 138.398,273.602 138.021,273.525 137.475 C 273.446 136.921,273.070 136.553,272.500 136.472 C 271.849 136.380,271.600 136.076,271.600 135.372 C 271.600 134.602,271.392 134.400,270.600 134.400 C 269.800 134.400,269.600 134.200,269.600 133.400 C 269.600 132.600,269.400 132.400,268.600 132.400 C 267.800 132.400,267.600 132.200,267.600 131.400 C 267.600 130.608,267.398 130.400,266.628 130.400 C 265.926 130.400,265.620 130.151,265.528 129.504 C 265.454 128.986,265.063 128.545,264.600 128.458 C 263.644 128.278,263.135 127.601,263.404 126.867 C 263.517 126.559,263.388 126.409,263.100 126.513 C 262.401 126.763,261.200 126.081,261.200 125.433 C 261.200 124.869,260.017 124.415,258.528 124.405 C 257.930 124.402,257.615 124.117,257.528 123.500 C 257.444 122.913,257.078 122.554,256.476 122.469 C 255.967 122.397,255.440 122.037,255.305 121.669 C 254.953 120.713,254.381 120.413,252.900 120.406 C 251.897 120.401,251.600 120.228,251.600 119.649 C 251.600 118.751,250.631 117.856,249.917 118.094 C 249.636 118.188,249.222 117.890,248.997 117.432 C 248.739 116.908,247.961 116.461,246.894 116.223 C 245.962 116.016,245.200 115.714,245.200 115.552 C 245.200 114.815,243.819 114.000,242.571 114.000 C 241.817 114.000,241.200 113.833,241.200 113.629 C 241.200 112.611,239.849 112.000,237.599 112.000 C 235.473 112.000,235.244 111.916,235.128 111.100 C 235.018 110.324,234.724 110.183,233.001 110.074 C 231.820 110.000,230.875 109.720,230.690 109.390 C 230.254 108.609,227.818 108.005,225.100 108.002 C 223.307 108.000,222.800 107.866,222.800 107.390 C 222.800 106.365,220.968 106.000,215.821 106.000 C 211.364 106.000,210.875 105.929,210.700 105.261 C 210.590 104.840,210.009 104.422,209.351 104.290 C 207.551 103.930,192.001 103.983,190.111 104.356 C 189.171 104.541,188.516 104.536,188.634 104.344 C 188.751 104.155,188.657 104.000,188.424 104.000 C 188.191 104.000,188.000 104.270,188.000 104.600 " stroke="none" fill="#7494fc" fill-rule="evenodd"></path><path id="path1" d="M189.073 51.861 C 188.923 52.011,188.800 52.463,188.800 52.867 C 188.800 53.553,188.291 53.600,180.800 53.600 L 172.800 53.600 172.800 54.588 L 172.800 55.575 167.900 55.688 C 163.162 55.796,162.996 55.830,162.872 56.700 C 162.753 57.541,162.550 57.600,159.780 57.600 C 156.965 57.600,156.803 57.650,156.568 58.583 C 156.339 59.498,156.122 59.575,153.461 59.683 C 150.858 59.789,150.589 59.880,150.474 60.682 C 150.361 61.477,150.085 61.576,147.674 61.682 C 145.343 61.785,144.949 61.916,144.605 62.700 C 144.275 63.452,143.897 63.600,142.305 63.600 C 140.540 63.600,140.400 63.673,140.400 64.600 C 140.400 65.533,140.267 65.600,138.400 65.600 C 136.533 65.600,136.400 65.667,136.400 66.600 C 136.400 67.533,136.267 67.600,134.400 67.600 C 132.533 67.600,132.400 67.667,132.400 68.600 C 132.400 69.533,132.267 69.600,130.400 69.600 C 128.545 69.600,128.400 69.671,128.400 70.578 C 128.400 71.461,128.215 71.568,126.500 71.678 C 124.913 71.780,124.580 71.940,124.479 72.651 C 124.380 73.345,123.991 73.551,122.379 73.765 C 120.767 73.979,120.400 74.173,120.400 74.814 C 120.400 75.376,120.128 75.600,119.443 75.600 C 118.769 75.600,118.416 75.881,118.247 76.554 C 118.054 77.324,117.660 77.560,116.205 77.778 C 114.738 77.998,114.358 78.230,114.158 79.024 C 113.984 79.718,113.637 80.000,112.957 80.000 C 112.203 80.000,112.000 80.212,112.000 81.000 C 112.000 81.800,111.800 82.000,111.000 82.000 C 110.206 82.000,110.000 82.201,110.000 82.978 C 110.000 83.861,109.815 83.968,108.100 84.078 C 106.479 84.182,106.181 84.332,106.072 85.100 C 105.980 85.751,105.676 86.000,104.972 86.000 C 104.202 86.000,104.000 86.208,104.000 87.000 C 104.000 87.800,103.800 88.000,103.000 88.000 C 102.200 88.000,102.000 88.200,102.000 89.000 C 102.000 89.800,101.800 90.000,101.000 90.000 C 100.200 90.000,100.000 90.200,100.000 91.000 C 100.000 91.800,99.800 92.000,99.000 92.000 C 98.200 92.000,98.000 92.200,98.000 93.000 C 98.000 93.800,97.800 94.000,97.000 94.000 C 96.200 94.000,96.000 94.200,96.000 95.000 C 96.000 95.800,95.800 96.000,95.000 96.000 C 94.200 96.000,94.000 96.200,94.000 97.000 C 94.000 97.800,93.800 98.000,93.000 98.000 C 92.200 98.000,92.000 98.200,92.000 99.000 C 92.000 99.800,91.800 100.000,91.000 100.000 C 90.200 100.000,90.000 100.200,90.000 101.000 C 90.000 101.800,89.800 102.000,89.000 102.000 C 88.200 102.000,88.000 102.200,88.000 103.000 C 88.000 103.800,87.800 104.000,87.000 104.000 C 86.208 104.000,86.000 104.202,86.000 104.972 C 86.000 105.676,85.751 105.980,85.100 106.072 C 84.530 106.153,84.154 106.521,84.075 107.075 C 83.998 107.621,83.621 107.998,83.075 108.075 C 82.336 108.181,82.181 108.496,82.078 110.100 C 81.968 111.815,81.861 112.000,80.978 112.000 C 80.213 112.000,80.000 112.209,80.000 112.957 C 80.000 113.636,79.718 113.984,79.028 114.157 C 78.421 114.310,78.007 114.740,77.928 115.301 C 77.847 115.866,77.478 116.246,76.934 116.323 C 76.227 116.424,76.019 116.804,75.800 118.400 C 75.581 119.996,75.373 120.376,74.666 120.477 C 73.938 120.580,73.781 120.903,73.678 122.500 C 73.568 124.215,73.461 124.400,72.578 124.400 C 71.809 124.400,71.600 124.608,71.600 125.372 C 71.600 126.076,71.351 126.380,70.700 126.472 C 69.934 126.581,69.782 126.879,69.679 128.475 C 69.577 130.056,69.421 130.369,68.679 130.475 C 67.936 130.581,67.781 130.893,67.678 132.500 C 67.568 134.215,67.461 134.400,66.578 134.400 C 65.673 134.400,65.600 134.547,65.600 136.372 C 65.600 138.113,65.494 138.359,64.700 138.472 C 63.934 138.581,63.782 138.879,63.679 140.475 C 63.577 142.056,63.421 142.369,62.679 142.475 C 61.880 142.589,61.789 142.861,61.683 145.474 C 61.576 148.092,61.487 148.360,60.683 148.474 C 59.933 148.581,59.781 148.890,59.677 150.519 C 59.574 152.129,59.397 152.497,58.577 152.809 C 57.635 153.167,57.600 153.318,57.600 156.990 C 57.600 160.787,57.597 160.800,56.600 160.800 L 55.600 160.800 55.600 164.800 L 55.600 168.800 54.600 168.800 L 53.600 168.800 53.600 173.800 L 53.600 178.800 52.597 178.800 L 51.594 178.800 51.697 202.900 L 51.800 227.000 52.688 227.126 C 53.542 227.248,53.580 227.436,53.688 232.126 C 53.796 236.813,53.834 237.005,54.686 237.126 C 55.521 237.245,55.578 237.472,55.686 241.126 C 55.794 244.799,55.847 245.007,56.700 245.128 C 57.541 245.247,57.600 245.450,57.600 248.220 C 57.600 251.035,57.650 251.197,58.583 251.431 C 59.487 251.658,59.575 251.891,59.683 254.339 C 59.785 256.656,59.916 257.051,60.700 257.395 C 61.452 257.725,61.600 258.103,61.600 259.695 C 61.600 261.460,61.673 261.600,62.600 261.600 C 63.533 261.600,63.600 261.733,63.600 263.600 C 63.600 265.467,63.667 265.600,64.600 265.600 C 65.554 265.600,65.600 265.709,65.600 267.967 C 65.600 270.850,65.857 271.600,66.843 271.600 C 67.384 271.600,67.600 271.886,67.600 272.600 C 67.600 273.400,67.800 273.600,68.600 273.600 C 69.533 273.600,69.600 273.733,69.600 275.600 C 69.600 277.467,69.667 277.600,70.600 277.600 C 71.472 277.600,71.600 277.776,71.600 278.967 C 71.600 280.838,71.952 281.600,72.816 281.600 C 73.316 281.600,73.587 281.948,73.673 282.700 C 73.764 283.488,74.056 283.836,74.700 283.928 C 75.405 284.028,75.600 284.316,75.600 285.254 C 75.600 286.719,76.240 288.000,76.971 288.000 C 77.269 288.000,77.626 288.450,77.764 289.000 C 77.946 289.723,78.284 290.000,78.986 290.000 C 79.860 290.000,79.968 290.189,80.078 291.900 C 80.182 293.521,80.332 293.819,81.100 293.928 C 81.751 294.020,82.000 294.324,82.000 295.028 C 82.000 295.798,82.208 296.000,83.000 296.000 C 83.800 296.000,84.000 296.200,84.000 297.000 C 84.000 297.800,84.200 298.000,85.000 298.000 C 85.800 298.000,86.000 298.200,86.000 299.000 C 86.000 299.794,86.201 300.000,86.978 300.000 C 87.861 300.000,87.968 300.185,88.078 301.900 C 88.182 303.521,88.332 303.819,89.100 303.928 C 89.751 304.020,90.000 304.324,90.000 305.028 C 90.000 305.798,90.208 306.000,91.000 306.000 C 91.800 306.000,92.000 306.200,92.000 307.000 C 92.000 307.800,92.200 308.000,93.000 308.000 C 93.800 308.000,94.000 308.200,94.000 309.000 C 94.000 309.800,94.200 310.000,95.000 310.000 C 95.800 310.000,96.000 310.200,96.000 311.000 C 96.000 311.800,96.200 312.000,97.000 312.000 C 97.800 312.000,98.000 312.200,98.000 313.000 C 98.000 313.792,98.202 314.000,98.972 314.000 C 99.676 314.000,99.980 314.249,100.072 314.900 C 100.181 315.668,100.479 315.818,102.100 315.922 C 103.815 316.032,104.000 316.139,104.000 317.022 C 104.000 317.799,104.206 318.000,105.000 318.000 C 105.800 318.000,106.000 318.200,106.000 319.000 C 106.000 319.792,106.202 320.000,106.972 320.000 C 107.676 320.000,107.980 320.249,108.072 320.900 C 108.154 321.478,108.522 321.846,109.100 321.928 C 109.672 322.009,110.000 322.332,110.000 322.814 C 110.000 323.741,111.142 324.400,112.746 324.400 C 113.684 324.400,113.972 324.595,114.072 325.300 C 114.156 325.887,114.522 326.246,115.124 326.331 C 115.633 326.403,116.160 326.763,116.295 327.131 C 116.657 328.112,117.223 328.387,118.900 328.394 C 120.232 328.399,120.400 328.512,120.400 329.400 C 120.400 330.192,120.602 330.400,121.372 330.400 C 122.076 330.400,122.380 330.649,122.472 331.300 C 122.581 332.066,122.879 332.218,124.475 332.321 C 126.056 332.423,126.369 332.579,126.475 333.321 C 126.581 334.064,126.893 334.219,128.500 334.322 C 130.215 334.432,130.400 334.539,130.400 335.422 C 130.400 336.329,130.545 336.400,132.400 336.400 C 134.267 336.400,134.400 336.467,134.400 337.400 C 134.400 338.333,134.533 338.400,136.400 338.400 C 138.267 338.400,138.400 338.467,138.400 339.400 C 138.400 340.331,138.535 340.400,140.372 340.400 C 142.113 340.400,142.359 340.506,142.472 341.300 C 142.589 342.125,142.840 342.210,145.474 342.317 C 148.092 342.424,148.360 342.513,148.474 343.317 C 148.589 344.121,148.857 344.210,151.474 344.317 C 154.092 344.424,154.360 344.513,154.474 345.317 C 154.590 346.129,154.850 346.209,157.700 346.317 C 160.694 346.430,160.800 346.467,160.800 347.417 C 160.800 348.396,160.818 348.400,164.800 348.400 L 168.800 348.400 168.800 349.400 L 168.800 350.400 174.772 350.400 C 180.661 350.400,180.746 350.413,180.872 351.300 L 181.000 352.200 238.504 352.301 L 296.009 352.403 295.904 335.301 L 295.800 318.200 242.300 318.099 C 190.329 318.000,188.800 317.976,188.800 317.249 C 188.800 316.242,187.401 316.000,181.578 316.000 C 176.985 316.000,176.852 315.975,176.728 315.100 C 176.607 314.247,176.399 314.194,172.726 314.086 C 169.072 313.978,168.845 313.921,168.726 313.086 C 168.611 312.278,168.346 312.190,165.726 312.083 C 163.108 311.976,162.840 311.887,162.726 311.083 C 162.617 310.321,162.316 310.184,160.525 310.080 C 158.737 309.976,158.433 309.839,158.325 309.080 C 158.211 308.279,157.941 308.189,155.300 308.082 C 152.519 307.970,152.400 307.925,152.400 306.982 C 152.400 306.070,152.257 306.000,150.400 306.000 C 148.533 306.000,148.400 305.933,148.400 305.000 C 148.400 304.067,148.267 304.000,146.400 304.000 C 144.533 304.000,144.400 303.933,144.400 303.000 C 144.400 302.208,144.198 302.000,143.428 302.000 C 142.724 302.000,142.420 301.751,142.328 301.100 C 142.219 300.332,141.921 300.182,140.300 300.078 C 138.585 299.968,138.400 299.861,138.400 298.978 C 138.400 298.209,138.192 298.000,137.428 298.000 C 136.724 298.000,136.420 297.751,136.328 297.100 C 136.219 296.332,135.921 296.182,134.300 296.078 C 132.585 295.968,132.400 295.861,132.400 294.978 C 132.400 294.209,132.192 294.000,131.428 294.000 C 130.724 294.000,130.420 293.751,130.328 293.100 C 130.248 292.535,129.879 292.154,129.338 292.077 C 128.813 292.002,128.379 291.572,128.230 290.977 C 128.052 290.269,127.711 290.000,126.992 290.000 C 126.201 290.000,126.000 289.798,126.000 289.000 C 126.000 288.081,125.853 288.000,124.200 288.000 C 122.547 288.000,122.400 287.919,122.400 287.000 C 122.400 286.200,122.200 286.000,121.400 286.000 C 120.600 286.000,120.400 285.800,120.400 285.000 C 120.400 284.156,120.213 284.000,119.200 284.000 C 118.196 284.000,118.000 283.841,118.000 283.028 C 118.000 282.324,117.751 282.020,117.100 281.928 C 116.332 281.819,116.182 281.521,116.078 279.900 C 115.968 278.185,115.861 278.000,114.978 278.000 C 114.203 278.000,114.000 277.794,114.000 277.008 C 114.000 276.289,113.731 275.948,113.023 275.770 C 112.428 275.621,111.998 275.187,111.923 274.662 C 111.846 274.121,111.465 273.752,110.900 273.672 C 110.249 273.580,110.000 273.276,110.000 272.572 C 110.000 271.802,109.792 271.600,109.000 271.600 C 108.082 271.600,108.000 271.453,108.000 269.808 C 108.000 268.229,107.881 267.985,107.000 267.764 C 106.282 267.584,106.000 267.243,106.000 266.557 C 106.000 265.809,105.787 265.600,105.022 265.600 C 104.139 265.600,104.032 265.415,103.922 263.700 C 103.818 262.079,103.668 261.781,102.900 261.672 C 102.249 261.580,102.000 261.276,102.000 260.572 C 102.000 259.802,101.792 259.600,101.000 259.600 C 100.067 259.600,100.000 259.467,100.000 257.600 C 100.000 255.733,99.933 255.600,99.000 255.600 C 98.067 255.600,98.000 255.467,98.000 253.600 C 98.000 251.733,97.933 251.600,97.000 251.600 C 96.067 251.600,96.000 251.467,96.000 249.600 C 96.000 247.733,95.933 247.600,95.000 247.600 C 94.046 247.600,94.000 247.491,94.000 245.233 C 94.000 242.350,93.743 241.600,92.757 241.600 C 92.100 241.600,92.000 241.289,92.000 239.233 C 92.000 236.361,91.743 235.600,90.774 235.600 C 90.127 235.600,90.019 235.208,89.917 232.500 C 89.809 229.631,89.733 229.390,88.900 229.272 C 88.030 229.149,88.000 229.001,88.000 224.805 C 88.000 219.928,87.839 219.200,86.757 219.200 C 86.027 219.200,86.000 218.628,86.000 203.000 C 86.000 188.750,86.073 186.800,86.610 186.800 C 87.590 186.800,88.000 185.023,88.000 180.774 C 88.000 177.551,88.111 176.800,88.586 176.800 C 89.575 176.800,90.000 175.393,90.000 172.121 C 90.000 169.257,90.077 168.956,90.900 168.595 C 91.684 168.251,91.815 167.857,91.918 165.526 C 92.024 163.115,92.123 162.839,92.918 162.726 C 93.679 162.617,93.816 162.316,93.920 160.525 C 94.024 158.737,94.161 158.433,94.920 158.325 C 95.721 158.211,95.811 157.941,95.918 155.300 C 96.030 152.519,96.075 152.400,97.018 152.400 C 97.930 152.400,98.000 152.257,98.000 150.400 C 98.000 148.533,98.067 148.400,99.000 148.400 C 99.792 148.400,100.000 148.198,100.000 147.428 C 100.000 146.724,100.249 146.420,100.900 146.328 C 101.666 146.219,101.818 145.921,101.921 144.325 C 102.023 142.744,102.179 142.431,102.921 142.325 C 103.664 142.219,103.819 141.907,103.922 140.300 C 104.032 138.585,104.139 138.400,105.022 138.400 C 105.791 138.400,106.000 138.192,106.000 137.428 C 106.000 136.724,106.249 136.420,106.900 136.328 C 107.470 136.247,107.846 135.879,107.925 135.325 C 108.002 134.779,108.379 134.402,108.925 134.325 C 109.664 134.219,109.819 133.904,109.922 132.300 C 110.032 130.585,110.139 130.400,111.022 130.400 C 111.799 130.400,112.000 130.194,112.000 129.400 C 112.000 128.600,112.200 128.400,113.000 128.400 C 113.792 128.400,114.000 128.198,114.000 127.428 C 114.000 126.724,114.249 126.420,114.900 126.328 C 115.465 126.248,115.846 125.879,115.923 125.338 C 115.998 124.813,116.428 124.379,117.023 124.230 C 117.624 124.079,118.000 123.696,118.000 123.236 C 118.000 122.772,118.378 122.392,118.994 122.237 C 119.607 122.083,120.083 121.607,120.237 120.994 C 120.392 120.378,120.772 120.000,121.236 120.000 C 121.696 120.000,122.079 119.624,122.230 119.023 C 122.379 118.428,122.813 117.998,123.338 117.923 C 123.870 117.847,124.248 117.465,124.325 116.925 C 124.402 116.379,124.779 116.002,125.325 115.925 C 125.879 115.846,126.247 115.470,126.328 114.900 C 126.420 114.249,126.724 114.000,127.428 114.000 C 128.198 114.000,128.400 113.792,128.400 113.000 C 128.400 112.082,128.547 112.000,130.192 112.000 C 131.759 112.000,132.016 111.877,132.230 111.023 C 132.379 110.428,132.813 109.998,133.338 109.923 C 133.879 109.846,134.248 109.465,134.328 108.900 C 134.420 108.249,134.724 108.000,135.428 108.000 C 136.192 108.000,136.400 107.791,136.400 107.022 C 136.400 106.139,136.585 106.032,138.300 105.922 C 139.921 105.818,140.219 105.668,140.328 104.900 C 140.420 104.249,140.724 104.000,141.428 104.000 C 142.198 104.000,142.400 103.792,142.400 103.000 C 142.400 102.067,142.533 102.000,144.400 102.000 C 146.267 102.000,146.400 101.933,146.400 101.000 C 146.400 100.067,146.533 100.000,148.400 100.000 C 150.267 100.000,150.400 99.933,150.400 99.000 C 150.400 98.067,150.533 98.000,152.400 98.000 C 154.267 98.000,154.400 97.933,154.400 97.000 C 154.400 96.046,154.509 96.000,156.767 96.000 C 159.636 96.000,160.400 95.743,160.400 94.778 C 160.400 94.172,160.771 94.020,162.500 93.921 C 164.329 93.816,164.616 93.684,164.728 92.900 C 164.848 92.052,165.042 92.000,168.054 92.000 C 171.388 92.000,172.800 91.579,172.800 90.586 C 172.800 90.118,173.477 90.000,176.167 90.000 C 180.058 90.000,180.800 89.801,180.800 88.757 C 180.800 88.024,181.447 88.000,201.000 88.000 C 218.835 88.000,221.200 88.071,221.200 88.610 C 221.200 89.589,222.975 90.000,227.198 90.000 C 230.986 90.000,231.149 90.036,231.272 90.900 C 231.390 91.732,231.632 91.809,234.474 91.916 C 237.299 92.023,237.559 92.104,237.674 92.916 C 237.789 93.721,238.056 93.810,240.674 93.917 C 243.292 94.024,243.560 94.113,243.674 94.917 C 243.789 95.722,244.056 95.810,246.700 95.918 C 249.481 96.030,249.600 96.075,249.600 97.018 C 249.600 97.930,249.743 98.000,251.600 98.000 C 253.467 98.000,253.600 98.067,253.600 99.000 C 253.600 99.933,253.733 100.000,255.600 100.000 C 257.467 100.000,257.600 100.067,257.600 101.000 C 257.600 101.792,257.802 102.000,258.572 102.000 C 259.276 102.000,259.580 102.249,259.672 102.900 C 259.781 103.666,260.079 103.818,261.675 103.921 C 263.256 104.023,263.569 104.179,263.675 104.921 C 263.781 105.664,264.093 105.819,265.700 105.922 C 267.415 106.032,267.600 106.139,267.600 107.022 C 267.600 107.791,267.808 108.000,268.572 108.000 C 269.276 108.000,269.580 108.249,269.672 108.900 C 269.752 109.465,270.121 109.846,270.662 109.923 C 271.187 109.998,271.621 110.428,271.770 111.023 C 271.984 111.874,272.242 112.000,273.780 112.000 C 275.305 112.000,275.562 112.122,275.672 112.900 C 275.752 113.465,276.121 113.846,276.662 113.923 C 277.187 113.998,277.621 114.428,277.770 115.023 C 277.948 115.731,278.289 116.000,279.008 116.000 C 279.799 116.000,280.000 116.202,280.000 117.000 C 280.000 117.800,280.200 118.000,281.000 118.000 C 281.800 118.000,282.000 118.200,282.000 119.000 C 282.000 119.793,282.202 120.000,282.973 120.000 C 283.738 120.000,283.974 120.236,284.073 121.100 C 284.163 121.877,284.457 122.237,285.075 122.325 C 285.621 122.402,285.998 122.779,286.075 123.325 C 286.153 123.870,286.530 124.247,287.075 124.325 C 287.621 124.402,287.998 124.779,288.075 125.325 C 288.154 125.879,288.530 126.247,289.100 126.328 C 289.751 126.420,290.000 126.724,290.000 127.428 C 290.000 128.198,290.208 128.400,291.000 128.400 C 291.915 128.400,292.000 128.550,292.000 130.157 C 292.000 131.683,292.127 131.945,292.972 132.157 C 293.579 132.310,293.993 132.740,294.072 133.301 C 294.154 133.878,294.522 134.246,295.100 134.328 C 295.751 134.420,296.000 134.724,296.000 135.428 C 296.000 136.192,296.209 136.400,296.978 136.400 C 297.861 136.400,297.968 136.585,298.078 138.300 C 298.182 139.921,298.332 140.219,299.100 140.328 C 299.751 140.420,300.000 140.724,300.000 141.428 C 300.000 142.198,300.208 142.400,301.000 142.400 C 301.933 142.400,302.000 142.533,302.000 144.400 C 302.000 146.267,302.067 146.400,303.000 146.400 C 303.933 146.400,304.000 146.533,304.000 148.400 C 304.000 150.267,304.067 150.400,305.000 150.400 C 305.933 150.400,306.000 150.533,306.000 152.400 C 306.000 154.267,306.067 154.400,307.000 154.400 C 307.954 154.400,308.000 154.509,308.000 156.767 C 308.000 159.650,308.257 160.400,309.243 160.400 C 309.900 160.400,310.000 160.711,310.000 162.767 C 310.000 165.638,310.257 166.400,311.225 166.400 C 311.866 166.400,311.981 166.788,312.082 169.300 C 312.186 171.866,312.304 172.246,313.100 172.595 C 313.933 172.960,314.000 173.245,314.000 176.445 C 314.000 180.867,314.320 182.454,315.260 182.700 C 315.974 182.887,316.001 185.629,316.099 267.546 L 316.200 352.200 333.300 352.304 L 350.400 352.409 350.400 263.604 L 350.400 174.800 349.400 174.800 L 348.400 174.800 348.400 169.800 L 348.400 164.800 347.400 164.800 C 346.401 164.800,346.400 164.797,346.400 160.843 C 346.400 156.975,346.378 156.881,345.417 156.640 C 344.502 156.410,344.427 156.196,344.317 153.497 C 344.210 150.857,344.122 150.589,343.318 150.474 C 342.523 150.361,342.424 150.085,342.318 147.674 C 342.215 145.343,342.084 144.949,341.300 144.605 C 340.548 144.275,340.400 143.897,340.400 142.305 C 340.400 140.540,340.327 140.400,339.400 140.400 C 338.446 140.400,338.400 140.291,338.400 138.033 C 338.400 135.150,338.143 134.400,337.157 134.400 C 336.562 134.400,336.400 134.108,336.400 133.033 C 336.400 131.148,336.047 130.400,335.157 130.400 C 334.616 130.400,334.400 130.114,334.400 129.400 C 334.400 128.600,334.200 128.400,333.400 128.400 C 332.467 128.400,332.400 128.267,332.400 126.400 C 332.400 124.545,332.329 124.400,331.422 124.400 C 330.539 124.400,330.432 124.215,330.322 122.500 C 330.218 120.879,330.068 120.581,329.300 120.472 C 328.651 120.380,328.400 120.076,328.400 119.380 C 328.400 118.685,328.121 118.345,327.400 118.164 C 326.585 117.960,326.400 117.668,326.400 116.585 C 326.400 115.339,325.571 114.000,324.799 114.000 C 324.610 114.000,324.398 113.595,324.328 113.100 C 324.248 112.537,323.879 112.154,323.342 112.078 C 322.663 111.981,322.429 111.588,322.221 110.198 C 322.043 109.012,321.724 108.366,321.239 108.212 C 320.844 108.087,320.318 107.538,320.069 106.992 C 319.805 106.412,319.281 106.000,318.809 106.000 C 318.213 106.000,318.000 105.737,318.000 105.000 C 318.000 104.200,317.800 104.000,317.000 104.000 C 316.200 104.000,316.000 103.800,316.000 103.000 C 316.000 102.200,315.800 102.000,315.000 102.000 C 314.200 102.000,314.000 101.800,314.000 101.000 C 314.000 100.200,313.800 100.000,313.000 100.000 C 312.200 100.000,312.000 99.800,312.000 99.000 C 312.000 98.200,311.800 98.000,311.000 98.000 C 310.200 98.000,310.000 97.800,310.000 97.000 C 310.000 96.200,309.800 96.000,309.000 96.000 C 308.200 96.000,308.000 95.800,308.000 95.000 C 308.000 94.200,307.800 94.000,307.000 94.000 C 306.200 94.000,306.000 93.800,306.000 93.000 C 306.000 92.200,305.800 92.000,305.000 92.000 C 304.200 92.000,304.000 91.800,304.000 91.000 C 304.000 90.200,303.800 90.000,303.000 90.000 C 302.200 90.000,302.000 89.800,302.000 89.000 C 302.000 88.200,301.800 88.000,301.000 88.000 C 300.200 88.000,300.000 87.800,300.000 87.000 C 300.000 86.200,299.800 86.000,299.000 86.000 C 298.200 86.000,298.000 85.800,298.000 85.000 C 298.000 84.067,297.867 84.000,296.000 84.000 C 294.133 84.000,294.000 83.933,294.000 83.000 C 294.000 82.200,293.800 82.000,293.000 82.000 C 292.200 82.000,292.000 81.800,292.000 81.000 C 292.000 80.208,291.798 80.000,291.028 80.000 C 290.324 80.000,290.020 79.751,289.928 79.100 C 289.825 78.377,289.430 78.129,287.920 77.837 C 286.461 77.555,286.012 77.285,285.920 76.637 C 285.846 76.121,285.455 75.751,284.900 75.672 C 284.405 75.602,284.000 75.390,284.000 75.201 C 284.000 74.381,282.634 73.600,281.199 73.600 C 279.903 73.600,279.635 73.456,279.528 72.700 C 279.419 71.932,279.121 71.782,277.500 71.678 C 275.785 71.568,275.600 71.461,275.600 70.578 C 275.600 69.671,275.455 69.600,273.600 69.600 C 271.733 69.600,271.600 69.533,271.600 68.600 C 271.600 67.667,271.467 67.600,269.600 67.600 C 267.733 67.600,267.600 67.533,267.600 66.600 C 267.600 65.667,267.467 65.600,265.600 65.600 C 263.733 65.600,263.600 65.533,263.600 64.600 C 263.600 63.669,263.465 63.600,261.628 63.600 C 259.887 63.600,259.641 63.494,259.528 62.700 C 259.411 61.875,259.160 61.790,256.526 61.683 C 253.908 61.576,253.640 61.487,253.526 60.683 C 253.411 59.879,253.143 59.790,250.539 59.683 C 247.878 59.575,247.661 59.498,247.432 58.583 C 247.190 57.621,247.099 57.600,243.192 57.600 C 239.201 57.600,239.200 57.600,239.200 56.600 L 239.200 55.600 234.200 55.600 L 229.200 55.600 229.200 54.600 L 229.200 53.600 221.228 53.600 C 213.265 53.600,213.255 53.599,213.128 52.700 L 213.000 51.800 201.173 51.694 C 194.667 51.636,189.222 51.711,189.073 51.861 M187.222 104.573 C 186.772 105.116,186.767 105.320,187.196 105.717 C 187.561 106.055,187.639 106.060,187.456 105.734 C 187.313 105.478,187.403 105.199,187.658 105.114 C 187.912 105.029,188.041 104.724,187.945 104.436 C 187.812 104.036,187.641 104.068,187.222 104.573 M188.652 104.316 C 188.544 104.490,189.073 104.561,189.828 104.473 C 190.583 104.385,191.200 104.242,191.200 104.156 C 191.200 103.855,188.845 104.003,188.652 104.316 M209.563 104.349 C 210.093 104.497,210.665 104.974,210.835 105.409 C 211.005 105.844,211.156 105.990,211.172 105.733 C 211.238 104.642,210.665 104.002,209.657 104.040 L 208.600 104.080 209.563 104.349 M175.343 106.350 C 175.154 106.488,174.938 106.960,174.862 107.400 C 174.735 108.139,174.786 108.129,175.532 107.274 C 175.976 106.764,176.448 106.373,176.580 106.404 C 176.712 106.435,177.041 106.383,177.310 106.288 C 177.580 106.193,177.324 106.112,176.743 106.108 C 176.161 106.104,175.531 106.213,175.343 106.350 M221.770 106.337 C 222.194 106.514,222.686 107.006,222.863 107.430 C 223.136 108.081,223.172 108.045,223.093 107.200 C 223.024 106.455,222.745 106.176,222.000 106.107 C 221.155 106.028,221.119 106.064,221.770 106.337 M229.000 108.426 C 229.659 108.623,230.424 109.092,230.700 109.468 C 231.159 110.097,231.200 110.085,231.200 109.319 C 231.200 108.389,230.462 107.983,228.867 108.034 L 227.800 108.069 229.000 108.426 M157.500 112.276 C 157.115 112.376,156.814 112.760,156.832 113.129 C 156.851 113.545,156.940 113.610,157.065 113.300 C 157.176 113.025,157.612 112.800,158.033 112.800 C 158.455 112.800,158.800 112.620,158.800 112.400 C 158.800 111.984,158.665 111.971,157.500 112.276 M240.571 112.629 C 240.917 112.974,241.200 113.454,241.200 113.695 C 241.200 113.936,241.305 114.029,241.432 113.901 C 241.756 113.577,240.864 112.000,240.357 112.000 C 240.129 112.000,240.226 112.283,240.571 112.629 M152.800 115.049 C 152.800 115.580,152.909 115.608,153.400 115.200 C 153.730 114.926,154.000 114.634,154.000 114.551 C 154.000 114.468,153.730 114.400,153.400 114.400 C 153.070 114.400,152.800 114.692,152.800 115.049 M248.938 117.387 C 249.192 117.930,249.462 118.194,249.538 117.974 C 249.734 117.405,249.295 116.400,248.850 116.400 C 248.641 116.400,248.679 116.835,248.938 117.387 M142.803 120.789 C 142.328 121.090,142.308 121.268,142.703 121.663 C 143.099 122.059,143.200 122.028,143.200 121.513 C 143.200 121.158,143.425 120.776,143.700 120.665 C 143.975 120.554,144.020 120.452,143.800 120.438 C 143.580 120.424,143.132 120.582,142.803 120.789 M254.640 120.706 C 254.882 120.868,255.183 121.270,255.308 121.600 C 255.461 122.001,255.547 121.901,255.568 121.300 C 255.590 120.695,255.370 120.402,254.900 120.406 C 254.468 120.410,254.369 120.525,254.640 120.706 M260.475 124.671 C 260.847 124.769,261.231 125.153,261.329 125.525 C 261.455 126.003,261.521 125.938,261.554 125.300 C 261.589 124.607,261.393 124.411,260.700 124.446 C 260.062 124.479,259.997 124.545,260.475 124.671 M134.900 126.665 C 134.625 126.776,134.411 127.257,134.425 127.733 C 134.450 128.584,134.458 128.583,134.822 127.674 C 135.026 127.165,135.362 126.853,135.569 126.981 C 135.776 127.109,136.058 127.030,136.196 126.807 C 136.456 126.386,135.775 126.312,134.900 126.665 M132.400 129.267 C 132.400 129.743,132.451 130.058,132.513 129.967 C 132.575 129.875,132.867 129.485,133.162 129.100 C 133.621 128.501,133.604 128.400,133.049 128.400 C 132.650 128.400,132.400 128.734,132.400 129.267 M124.400 137.134 C 124.400 137.609,124.511 137.613,125.100 137.162 C 125.485 136.867,125.865 136.585,125.945 136.535 C 126.025 136.484,125.710 136.472,125.245 136.507 C 124.780 136.542,124.400 136.824,124.400 137.134 M122.400 139.134 C 122.400 139.609,122.511 139.613,123.100 139.162 C 123.485 138.867,123.865 138.585,123.945 138.535 C 124.025 138.484,123.710 138.472,123.245 138.507 C 122.780 138.542,122.400 138.824,122.400 139.134 M184.282 140.930 C 184.137 141.309,183.609 141.783,183.109 141.984 C 182.233 142.336,182.240 142.350,183.313 142.375 C 184.421 142.400,185.029 141.687,184.711 140.733 C 184.604 140.413,184.454 140.482,184.282 140.930 M213.289 141.200 C 213.377 141.994,213.647 142.219,214.600 142.294 C 215.660 142.376,215.699 142.344,214.934 142.019 C 214.458 141.817,213.868 141.325,213.623 140.926 C 213.228 140.281,213.191 140.312,213.289 141.200 M278.806 142.876 C 278.818 143.881,279.587 144.708,279.594 143.724 C 279.597 143.242,279.420 142.736,279.200 142.600 C 278.980 142.464,278.803 142.588,278.806 142.876 M178.199 143.201 C 178.045 143.451,177.532 143.812,177.059 144.003 C 176.250 144.329,176.262 144.351,177.257 144.375 C 177.886 144.390,178.417 144.134,178.567 143.743 C 178.868 142.956,178.597 142.557,178.199 143.201 M225.206 145.076 C 225.203 145.558,225.392 146.071,225.627 146.216 C 226.282 146.621,226.317 146.298,225.739 145.200 C 225.233 144.241,225.212 144.236,225.206 145.076 M117.676 146.248 C 117.388 146.561,116.983 146.713,116.776 146.585 C 116.569 146.457,116.400 146.556,116.400 146.803 C 116.400 147.086,116.736 147.151,117.300 146.977 C 118.417 146.634,118.518 146.545,118.342 146.064 C 118.264 145.852,117.964 145.935,117.676 146.248 M282.475 148.671 C 282.846 148.769,283.327 149.333,283.543 149.924 C 283.760 150.516,283.951 150.763,283.968 150.474 C 284.025 149.539,283.191 148.399,282.486 148.446 C 281.852 148.489,281.851 148.506,282.475 148.671 M165.500 149.633 C 164.830 150.367,164.835 150.400,165.600 150.400 C 166.133 150.400,166.400 150.133,166.400 149.600 C 166.400 148.652,166.396 148.652,165.500 149.633 M235.370 150.933 C 235.496 151.336,235.600 151.831,235.600 152.033 C 235.600 152.235,235.915 152.397,236.300 152.394 C 236.726 152.390,236.830 152.273,236.566 152.094 C 236.327 151.932,235.908 151.440,235.636 151.000 C 235.220 150.330,235.177 150.319,235.370 150.933 M112.392 153.010 C 111.644 153.911,112.078 154.015,112.970 153.148 C 113.393 152.737,113.551 152.400,113.319 152.400 C 113.087 152.400,112.670 152.674,112.392 153.010 M160.133 153.429 C 159.881 153.963,159.826 154.400,160.011 154.400 C 160.358 154.400,160.981 152.847,160.732 152.599 C 160.655 152.522,160.385 152.895,160.133 153.429 M286.611 155.106 C 286.837 155.268,287.230 155.850,287.484 156.400 C 287.738 156.950,287.958 157.163,287.973 156.874 C 288.015 156.063,287.228 154.799,286.686 154.806 C 286.372 154.810,286.346 154.916,286.611 155.106 M289.111 159.974 C 289.903 161.354,290.143 161.308,289.776 159.847 C 289.632 159.271,289.271 158.800,288.975 158.800 C 288.555 158.800,288.585 159.058,289.111 159.974 M290.856 163.566 C 291.923 164.431,292.131 164.406,291.767 163.457 C 291.628 163.096,291.154 162.800,290.713 162.800 C 289.961 162.800,289.969 162.847,290.856 163.566 M148.984 164.162 C 148.265 164.688,148.286 164.711,149.308 164.516 C 149.908 164.401,150.400 164.148,150.400 163.953 C 150.400 163.440,149.863 163.519,148.984 164.162 M106.150 165.387 C 105.743 166.448,106.189 166.796,106.662 165.787 C 106.921 165.235,106.959 164.800,106.750 164.800 C 106.544 164.800,106.274 165.064,106.150 165.387 M251.600 168.011 C 251.600 168.358,253.153 168.981,253.401 168.732 C 253.478 168.655,253.105 168.385,252.571 168.133 C 252.037 167.881,251.600 167.826,251.600 168.011 M104.150 171.387 C 104.026 171.710,104.017 172.205,104.131 172.487 C 104.244 172.769,104.351 172.610,104.368 172.133 C 104.386 171.657,104.625 171.176,104.900 171.065 C 105.292 170.907,105.289 170.856,104.887 170.832 C 104.606 170.814,104.274 171.064,104.150 171.387 M144.000 171.546 C 144.000 171.810,143.595 172.189,143.100 172.388 L 142.200 172.749 143.113 172.775 C 143.996 172.799,144.757 171.823,144.249 171.316 C 144.112 171.179,144.000 171.282,144.000 171.546 M142.046 175.067 C 142.021 175.324,141.884 175.864,141.741 176.267 C 141.540 176.836,141.594 176.897,141.979 176.542 C 142.252 176.291,142.389 175.751,142.284 175.342 C 142.179 174.934,142.072 174.810,142.046 175.067 M139.500 180.067 C 138.908 180.687,138.894 180.800,139.413 180.800 C 139.749 180.800,140.132 180.522,140.262 180.183 C 140.609 179.279,140.298 179.231,139.500 180.067 M259.810 183.584 C 259.441 184.180,259.784 184.521,260.910 184.678 C 261.547 184.767,261.644 184.702,261.253 184.448 C 260.952 184.254,260.569 183.874,260.403 183.605 C 260.173 183.233,260.030 183.228,259.810 183.584 M261.698 192.100 C 261.789 192.375,262.299 192.633,262.831 192.674 C 263.414 192.718,263.521 192.667,263.100 192.545 C 262.715 192.433,262.400 192.175,262.400 191.971 C 262.400 191.767,262.205 191.600,261.967 191.600 C 261.728 191.600,261.607 191.825,261.698 192.100 M298.869 201.734 C 299.237 202.014,299.613 202.863,299.705 203.621 C 299.866 204.947,299.874 204.936,299.936 203.343 C 299.982 202.158,299.819 201.616,299.367 201.443 C 298.360 201.056,298.144 201.183,298.869 201.734 M299.660 206.374 C 299.627 206.910,299.219 207.754,298.754 208.249 L 297.908 209.149 298.788 208.919 C 299.843 208.643,300.117 208.049,299.890 206.534 C 299.739 205.526,299.713 205.509,299.660 206.374 M137.213 221.651 C 137.237 222.678,138.400 223.927,138.400 222.925 C 138.400 222.470,138.130 221.874,137.800 221.600 C 137.316 221.198,137.202 221.208,137.213 221.651 M138.800 227.437 C 138.800 227.567,139.160 228.131,139.600 228.691 C 140.307 229.590,140.400 229.618,140.400 228.934 C 140.400 228.508,140.184 227.944,139.920 227.680 C 139.412 227.172,138.800 227.039,138.800 227.437 M102.241 229.934 C 101.931 230.435,102.653 231.289,103.259 231.139 C 103.713 231.027,103.687 230.866,103.126 230.315 C 102.743 229.938,102.344 229.766,102.241 229.934 M140.829 231.713 C 141.175 231.981,141.665 232.560,141.917 233.000 C 142.365 233.781,142.376 233.779,142.388 232.914 C 142.395 232.427,142.052 231.842,141.626 231.614 C 140.572 231.050,140.056 231.114,140.829 231.713 M143.235 235.713 C 143.584 235.981,143.975 236.470,144.104 236.800 C 144.306 237.321,144.341 237.319,144.368 236.780 C 144.404 236.075,143.647 235.194,143.020 235.213 C 142.789 235.220,142.886 235.445,143.235 235.713 M106.175 241.600 C 106.266 242.150,106.354 242.735,106.370 242.900 C 106.387 243.065,106.794 243.200,107.276 243.200 C 108.045 243.200,108.076 243.139,107.526 242.700 C 107.181 242.425,106.699 241.840,106.455 241.400 C 106.044 240.661,106.023 240.676,106.175 241.600 M159.081 254.080 C 159.565 254.314,160.039 254.796,160.134 255.153 C 160.254 255.600,160.322 255.535,160.354 254.943 C 160.398 254.127,159.682 253.568,158.667 253.627 C 158.410 253.642,158.596 253.846,159.081 254.080 M161.500 256.012 C 161.995 256.211,162.400 256.680,162.400 257.054 C 162.400 257.428,162.506 257.627,162.637 257.497 C 163.167 256.966,162.318 255.601,161.473 255.625 L 160.600 255.651 161.500 256.012 M167.500 260.012 C 167.995 260.211,168.400 260.680,168.400 261.054 C 168.400 261.428,168.506 261.627,168.637 261.497 C 169.167 260.966,168.318 259.601,167.473 259.625 L 166.600 259.651 167.500 260.012 M171.600 262.139 C 172.698 262.717,173.021 262.682,172.616 262.027 C 172.471 261.792,171.958 261.603,171.476 261.606 C 170.636 261.612,170.641 261.633,171.600 262.139 M120.400 266.594 C 120.400 267.244,121.283 267.782,121.950 267.538 C 122.157 267.462,121.893 267.077,121.363 266.681 C 120.523 266.054,120.400 266.043,120.400 266.594 M193.600 268.139 C 194.698 268.717,195.021 268.682,194.616 268.027 C 194.471 267.792,193.958 267.603,193.476 267.606 C 192.636 267.612,192.641 267.633,193.600 268.139 M136.614 282.777 C 136.341 283.220,136.625 283.399,138.199 283.777 C 139.509 284.092,139.501 284.071,137.921 283.083 C 137.325 282.711,136.740 282.574,136.614 282.777 M148.911 291.482 C 149.234 291.805,149.896 292.009,150.382 291.935 C 151.099 291.826,150.988 291.714,149.796 291.348 C 148.503 290.950,148.395 290.967,148.911 291.482 M152.412 292.651 C 152.393 293.363,153.491 294.084,154.281 293.879 C 154.857 293.730,154.826 293.684,154.120 293.646 C 153.636 293.621,153.056 293.285,152.832 292.900 C 152.608 292.515,152.419 292.403,152.412 292.651 M166.800 298.734 C 166.800 299.472,167.884 300.249,168.315 299.819 C 168.425 299.709,168.220 299.506,167.860 299.368 C 167.499 299.229,167.296 298.967,167.409 298.786 C 167.521 298.604,167.430 298.342,167.207 298.204 C 166.983 298.066,166.800 298.304,166.800 298.734 M263.734 302.800 C 263.783 303.535,264.040 303.814,264.706 303.853 C 265.411 303.895,265.438 303.867,264.831 303.729 C 264.401 303.631,263.964 303.157,263.859 302.675 C 263.701 301.946,263.680 301.967,263.734 302.800 M184.800 302.720 C 184.800 303.374,185.792 303.999,186.780 303.968 L 187.800 303.937 186.700 303.535 C 186.095 303.314,185.600 302.968,185.600 302.767 C 185.600 302.565,185.420 302.400,185.200 302.400 C 184.980 302.400,184.800 302.544,184.800 302.720 " stroke="none" fill="#043bfc" fill-rule="evenodd"></path><path id="path2" d="M186.800 0.600 C 186.800 1.116,185.533 1.200,177.800 1.200 L 168.800 1.200 168.800 2.200 L 168.800 3.200 162.800 3.200 L 156.800 3.200 156.800 4.186 C 156.800 5.162,156.760 5.173,152.700 5.286 C 148.813 5.394,148.593 5.446,148.474 6.286 C 148.355 7.121,148.128 7.178,144.474 7.286 C 140.824 7.393,140.593 7.451,140.474 8.283 C 140.360 9.087,140.092 9.176,137.474 9.283 C 134.857 9.390,134.589 9.479,134.474 10.283 C 134.360 11.087,134.092 11.176,131.474 11.283 C 128.840 11.390,128.589 11.475,128.472 12.300 C 128.359 13.094,128.113 13.200,126.372 13.200 C 124.545 13.200,124.400 13.272,124.400 14.182 C 124.400 15.125,124.281 15.170,121.500 15.282 C 118.860 15.389,118.589 15.479,118.475 16.279 C 118.369 17.021,118.056 17.177,116.475 17.279 C 114.879 17.382,114.581 17.534,114.472 18.300 C 114.359 19.094,114.113 19.200,112.380 19.200 C 110.629 19.200,110.389 19.306,110.169 20.180 C 109.959 21.019,109.657 21.177,108.062 21.280 C 106.494 21.381,106.180 21.539,106.075 22.278 C 105.973 22.999,105.649 23.178,104.275 23.278 C 103.000 23.371,102.508 23.610,102.213 24.281 C 101.922 24.944,101.426 25.192,100.213 25.281 C 98.999 25.371,98.504 25.618,98.212 26.284 C 97.999 26.770,97.459 27.220,97.012 27.284 C 96.528 27.353,96.150 27.755,96.075 28.279 C 95.969 29.021,95.656 29.177,94.075 29.279 C 92.479 29.382,92.181 29.534,92.072 30.300 C 91.980 30.951,91.676 31.200,90.972 31.200 C 90.202 31.200,90.000 31.408,90.000 32.200 C 90.000 33.072,89.824 33.200,88.633 33.200 C 86.763 33.200,86.000 33.552,86.000 34.415 C 86.000 34.867,85.658 35.193,85.100 35.272 C 84.534 35.353,84.154 35.721,84.077 36.266 C 83.976 36.974,83.595 37.181,81.977 37.403 C 80.231 37.643,80.000 37.787,80.000 38.638 C 80.000 39.386,79.787 39.600,79.043 39.600 C 78.364 39.600,78.016 39.882,77.843 40.572 C 77.690 41.179,77.260 41.593,76.699 41.672 C 76.122 41.754,75.754 42.122,75.672 42.700 C 75.562 43.476,75.304 43.600,73.800 43.600 C 72.306 43.600,72.037 43.727,71.928 44.484 C 71.847 45.042,71.432 45.453,70.800 45.600 C 70.179 45.745,69.753 46.158,69.675 46.692 C 69.599 47.220,69.214 47.599,68.675 47.675 C 68.121 47.754,67.753 48.130,67.672 48.700 C 67.580 49.351,67.276 49.600,66.572 49.600 C 65.802 49.600,65.600 49.808,65.600 50.600 C 65.600 51.400,65.400 51.600,64.600 51.600 C 63.800 51.600,63.600 51.800,63.600 52.600 C 63.600 53.400,63.400 53.600,62.600 53.600 C 61.800 53.600,61.600 53.800,61.600 54.600 C 61.600 55.400,61.400 55.600,60.600 55.600 C 59.800 55.600,59.600 55.800,59.600 56.600 C 59.600 57.400,59.400 57.600,58.600 57.600 C 57.800 57.600,57.600 57.800,57.600 58.600 C 57.600 59.400,57.400 59.600,56.600 59.600 C 55.800 59.600,55.600 59.800,55.600 60.600 C 55.600 61.400,55.400 61.600,54.600 61.600 C 53.800 61.600,53.600 61.800,53.600 62.600 C 53.600 63.400,53.400 63.600,52.600 63.600 C 51.800 63.600,51.600 63.800,51.600 64.600 C 51.600 65.400,51.400 65.600,50.600 65.600 C 49.808 65.600,49.600 65.802,49.600 66.572 C 49.600 67.276,49.351 67.580,48.700 67.672 C 48.130 67.753,47.754 68.121,47.675 68.675 C 47.598 69.221,47.221 69.598,46.675 69.675 C 46.122 69.754,45.753 70.130,45.672 70.699 C 45.593 71.260,45.179 71.690,44.572 71.843 C 43.727 72.055,43.600 72.317,43.600 73.843 C 43.600 75.450,43.515 75.600,42.600 75.600 C 41.812 75.600,41.600 75.803,41.600 76.557 C 41.600 77.243,41.318 77.584,40.600 77.764 C 39.869 77.948,39.600 78.283,39.600 79.008 C 39.600 79.789,39.396 80.000,38.638 80.000 C 37.786 80.000,37.643 80.230,37.400 82.000 C 37.157 83.770,37.014 84.000,36.162 84.000 C 35.403 84.000,35.200 84.210,35.200 85.000 C 35.200 85.714,34.984 86.000,34.443 86.000 C 33.553 86.000,33.200 86.748,33.200 88.633 C 33.200 89.824,33.072 90.000,32.200 90.000 C 31.408 90.000,31.200 90.202,31.200 90.972 C 31.200 91.676,30.951 91.980,30.300 92.072 C 29.532 92.181,29.382 92.479,29.278 94.100 C 29.168 95.815,29.061 96.000,28.178 96.000 C 27.409 96.000,27.200 96.208,27.200 96.972 C 27.200 97.676,26.951 97.980,26.300 98.072 C 25.534 98.181,25.382 98.479,25.279 100.075 C 25.177 101.656,25.021 101.969,24.279 102.075 C 23.536 102.181,23.381 102.493,23.278 104.100 C 23.168 105.815,23.061 106.000,22.178 106.000 C 21.271 106.000,21.200 106.145,21.200 108.000 C 21.200 109.867,21.133 110.000,20.200 110.000 C 19.269 110.000,19.200 110.135,19.200 111.972 C 19.200 113.713,19.094 113.959,18.300 114.072 C 17.532 114.181,17.382 114.479,17.278 116.098 C 17.173 117.730,17.019 118.030,16.178 118.241 C 15.307 118.460,15.200 118.702,15.200 120.443 C 15.200 122.264,15.130 122.400,14.200 122.400 C 13.222 122.400,13.200 122.467,13.200 125.400 C 13.200 128.333,13.178 128.400,12.200 128.400 C 11.269 128.400,11.200 128.535,11.200 130.372 C 11.200 132.113,11.094 132.359,10.300 132.472 C 9.475 132.589,9.390 132.840,9.283 135.474 C 9.176 138.092,9.087 138.360,8.283 138.474 C 7.451 138.593,7.393 138.823,7.286 142.500 C 7.173 146.347,7.158 146.400,6.186 146.400 C 5.226 146.400,5.200 146.479,5.200 149.392 C 5.200 152.251,5.155 152.396,4.200 152.636 C 3.201 152.887,3.200 152.890,3.200 157.843 L 3.200 162.800 2.200 162.800 L 1.200 162.800 1.200 168.800 C 1.200 173.867,1.107 174.800,0.600 174.800 C 0.073 174.800,0.000 178.089,0.000 202.000 C 0.000 225.911,0.073 229.200,0.600 229.200 C 1.107 229.200,1.200 230.133,1.200 235.200 L 1.200 241.200 2.188 241.200 L 3.176 241.200 3.288 246.300 C 3.396 251.221,3.431 251.404,4.286 251.526 C 5.121 251.645,5.178 251.872,5.286 255.526 C 5.394 259.199,5.447 259.407,6.300 259.528 C 7.141 259.647,7.200 259.850,7.200 262.628 C 7.200 265.531,7.223 265.600,8.200 265.600 C 9.178 265.600,9.200 265.667,9.200 268.600 C 9.200 271.519,9.227 271.600,10.182 271.600 C 11.125 271.600,11.170 271.719,11.282 274.500 C 11.390 277.161,11.474 277.411,12.300 277.528 C 13.094 277.641,13.200 277.887,13.200 279.628 C 13.200 281.455,13.272 281.600,14.182 281.600 C 15.125 281.600,15.170 281.719,15.282 284.500 C 15.390 287.161,15.474 287.411,16.300 287.528 C 17.080 287.639,17.200 287.894,17.200 289.438 C 17.200 290.971,17.340 291.273,18.200 291.600 C 19.039 291.919,19.200 292.240,19.200 293.599 C 19.200 294.928,19.375 295.297,20.180 295.664 C 20.951 296.015,21.185 296.460,21.280 297.755 C 21.372 299.012,21.613 299.493,22.300 299.795 C 22.852 300.037,23.200 300.540,23.200 301.095 C 23.200 301.794,23.428 302.000,24.200 302.000 C 25.133 302.000,25.200 302.133,25.200 304.000 C 25.200 305.855,25.271 306.000,26.178 306.000 C 27.061 306.000,27.168 306.185,27.278 307.900 C 27.382 309.521,27.532 309.819,28.300 309.928 C 28.951 310.020,29.200 310.324,29.200 311.028 C 29.200 311.792,29.409 312.000,30.178 312.000 C 31.061 312.000,31.168 312.185,31.278 313.900 C 31.382 315.521,31.532 315.819,32.300 315.928 C 32.951 316.020,33.200 316.324,33.200 317.028 C 33.200 317.798,33.408 318.000,34.200 318.000 C 35.023 318.000,35.201 318.195,35.205 319.100 C 35.215 320.952,35.652 322.000,36.415 322.000 C 36.891 322.000,37.226 322.408,37.400 323.200 C 37.604 324.130,37.881 324.400,38.632 324.400 C 39.513 324.400,39.600 324.562,39.600 326.200 C 39.600 327.853,39.681 328.000,40.600 328.000 C 41.398 328.000,41.600 328.201,41.600 328.992 C 41.600 329.711,41.869 330.052,42.577 330.230 C 43.172 330.379,43.602 330.813,43.677 331.338 C 43.754 331.879,44.135 332.248,44.700 332.328 C 45.351 332.420,45.600 332.724,45.600 333.428 C 45.600 334.198,45.808 334.400,46.600 334.400 C 47.400 334.400,47.600 334.600,47.600 335.400 C 47.600 336.200,47.800 336.400,48.600 336.400 C 49.400 336.400,49.600 336.600,49.600 337.400 C 49.600 338.194,49.801 338.400,50.578 338.400 C 51.461 338.400,51.568 338.585,51.678 340.300 C 51.781 341.904,51.936 342.219,52.675 342.325 C 53.221 342.402,53.598 342.779,53.675 343.325 C 53.753 343.870,54.130 344.247,54.675 344.325 C 55.221 344.402,55.598 344.779,55.675 345.325 C 55.753 345.870,56.130 346.247,56.675 346.325 C 57.221 346.402,57.598 346.779,57.675 347.325 C 57.753 347.870,58.130 348.247,58.675 348.325 C 59.221 348.402,59.598 348.779,59.675 349.325 C 59.752 349.865,60.130 350.247,60.662 350.323 C 61.187 350.398,61.621 350.828,61.770 351.423 C 61.984 352.277,62.241 352.400,63.808 352.400 C 65.453 352.400,65.600 352.482,65.600 353.400 C 65.600 354.200,65.800 354.400,66.600 354.400 C 67.400 354.400,67.600 354.600,67.600 355.400 C 67.600 356.200,67.800 356.400,68.600 356.400 C 69.400 356.400,69.600 356.600,69.600 357.400 C 69.600 358.192,69.802 358.400,70.572 358.400 C 71.276 358.400,71.580 358.649,71.672 359.300 C 71.752 359.865,72.121 360.246,72.662 360.323 C 73.187 360.398,73.621 360.828,73.770 361.423 C 73.983 362.272,74.244 362.400,75.758 362.400 C 77.374 362.400,77.517 362.487,77.740 363.600 C 77.931 364.553,78.188 364.800,78.990 364.800 C 79.801 364.800,80.000 364.997,80.000 365.800 C 80.000 366.600,80.200 366.800,81.000 366.800 C 81.714 366.800,82.000 367.016,82.000 367.557 C 82.000 368.447,82.748 368.800,84.633 368.800 C 85.824 368.800,86.000 368.928,86.000 369.800 C 86.000 370.600,86.200 370.800,87.000 370.800 C 87.714 370.800,88.000 371.016,88.000 371.557 C 88.000 372.447,88.748 372.800,90.633 372.800 C 91.824 372.800,92.000 372.928,92.000 373.800 C 92.000 374.592,92.202 374.800,92.972 374.800 C 93.676 374.800,93.980 375.049,94.072 375.700 C 94.181 376.468,94.479 376.618,96.100 376.722 C 97.815 376.832,98.000 376.939,98.000 377.822 C 98.000 378.729,98.145 378.800,100.000 378.800 C 101.867 378.800,102.000 378.867,102.000 379.800 C 102.000 380.592,102.202 380.800,102.972 380.800 C 103.676 380.800,103.980 381.049,104.072 381.700 C 104.181 382.466,104.479 382.618,106.075 382.721 C 107.656 382.823,107.969 382.979,108.075 383.721 C 108.180 384.461,108.494 384.619,110.062 384.720 C 111.657 384.823,111.959 384.981,112.169 385.820 C 112.401 386.743,112.579 386.800,115.200 386.800 C 117.837 386.800,117.998 386.853,118.236 387.800 C 118.461 388.696,118.690 388.800,120.443 388.800 C 122.264 388.800,122.400 388.870,122.400 389.800 C 122.400 390.733,122.533 390.800,124.400 390.800 C 126.267 390.800,126.400 390.867,126.400 391.800 C 126.400 392.778,126.467 392.800,129.400 392.800 C 132.333 392.800,132.400 392.822,132.400 393.800 C 132.400 394.778,132.467 394.800,135.400 394.800 C 138.333 394.800,138.400 394.822,138.400 395.800 C 138.400 396.776,138.470 396.800,141.357 396.800 C 144.165 396.800,144.326 396.849,144.561 397.786 C 144.800 398.738,144.939 398.775,148.704 398.886 C 152.400 398.994,152.607 399.046,152.728 399.900 C 152.853 400.778,152.976 400.800,157.828 400.800 L 162.800 400.800 162.800 401.800 L 162.800 402.800 169.800 402.800 C 175.756 402.800,176.800 402.890,176.800 403.400 C 176.800 403.931,186.378 404.000,260.600 404.000 L 344.400 404.000 344.400 387.400 L 344.400 370.800 266.628 370.800 L 188.856 370.800 188.728 369.900 C 188.601 369.006,188.549 368.999,180.741 368.892 L 172.883 368.783 172.634 367.792 C 172.386 366.806,172.357 366.800,167.636 366.800 C 162.904 366.800,162.886 366.796,162.636 365.800 C 162.389 364.817,162.317 364.800,158.392 364.800 C 154.401 364.800,154.400 364.800,154.400 363.800 C 154.400 362.886,154.250 362.800,152.650 362.800 C 149.854 362.800,148.400 362.390,148.400 361.602 C 148.400 360.855,146.739 360.413,143.900 360.404 C 142.699 360.401,142.400 360.250,142.400 359.647 C 142.400 358.745,141.366 358.413,138.528 358.405 C 136.685 358.401,136.441 358.300,136.328 357.500 C 136.219 356.734,135.921 356.582,134.325 356.479 C 132.744 356.377,132.431 356.221,132.325 355.479 C 132.220 354.743,131.906 354.581,130.387 354.482 C 128.966 354.389,128.490 354.173,128.187 353.482 C 127.894 352.814,127.400 352.571,126.155 352.480 C 124.860 352.385,124.415 352.151,124.064 351.380 C 123.699 350.581,123.326 350.400,122.036 350.400 C 120.702 350.400,120.436 350.260,120.328 349.500 C 120.216 348.716,119.929 348.584,118.100 348.479 C 116.172 348.368,116.000 348.278,116.000 347.379 C 116.000 346.601,115.794 346.400,115.000 346.400 C 114.200 346.400,114.000 346.200,114.000 345.400 C 114.000 344.467,113.867 344.400,112.000 344.400 C 110.133 344.400,110.000 344.333,110.000 343.400 C 110.000 342.600,109.800 342.400,109.000 342.400 C 108.200 342.400,108.000 342.200,108.000 341.400 C 108.000 340.467,107.867 340.400,106.000 340.400 C 104.133 340.400,104.000 340.333,104.000 339.400 C 104.000 338.608,103.798 338.400,103.028 338.400 C 102.324 338.400,102.020 338.151,101.928 337.500 C 101.847 336.930,101.479 336.554,100.925 336.475 C 100.379 336.398,100.002 336.021,99.925 335.475 C 99.819 334.736,99.504 334.581,97.900 334.478 C 96.185 334.368,96.000 334.261,96.000 333.378 C 96.000 332.601,95.794 332.400,95.000 332.400 C 94.200 332.400,94.000 332.200,94.000 331.400 C 94.000 330.608,93.798 330.400,93.028 330.400 C 92.324 330.400,92.020 330.151,91.928 329.500 C 91.847 328.930,91.479 328.554,90.925 328.475 C 90.379 328.398,90.002 328.021,89.925 327.475 C 89.848 326.935,89.470 326.553,88.938 326.477 C 88.413 326.402,87.979 325.972,87.830 325.377 C 87.652 324.669,87.311 324.400,86.592 324.400 C 85.808 324.400,85.600 324.196,85.600 323.428 C 85.600 322.724,85.351 322.420,84.700 322.328 C 84.130 322.247,83.754 321.879,83.675 321.325 C 83.598 320.779,83.221 320.402,82.675 320.325 C 82.121 320.246,81.753 319.870,81.672 319.300 C 81.580 318.649,81.276 318.400,80.572 318.400 C 79.809 318.400,79.600 318.191,79.600 317.428 C 79.600 316.730,79.350 316.420,78.716 316.328 C 78.158 316.247,77.747 315.832,77.600 315.200 C 77.455 314.579,77.042 314.153,76.508 314.075 C 75.980 313.999,75.601 313.614,75.525 313.075 C 75.446 312.521,75.070 312.153,74.500 312.072 C 73.849 311.980,73.600 311.676,73.600 310.972 C 73.600 310.202,73.392 310.000,72.600 310.000 C 71.800 310.000,71.600 309.800,71.600 309.000 C 71.600 308.206,71.399 308.000,70.622 308.000 C 69.739 308.000,69.632 307.815,69.522 306.100 C 69.419 304.496,69.264 304.181,68.525 304.075 C 67.979 303.998,67.602 303.621,67.525 303.075 C 67.446 302.521,67.070 302.153,66.500 302.072 C 65.849 301.980,65.600 301.676,65.600 300.972 C 65.600 300.208,65.391 300.000,64.622 300.000 C 63.739 300.000,63.632 299.815,63.522 298.100 C 63.418 296.479,63.268 296.181,62.500 296.072 C 61.849 295.980,61.600 295.676,61.600 294.972 C 61.600 294.208,61.391 294.000,60.622 294.000 C 59.739 294.000,59.632 293.815,59.522 292.100 C 59.418 290.479,59.268 290.181,58.500 290.072 C 57.849 289.980,57.600 289.676,57.600 288.972 C 57.600 288.202,57.392 288.000,56.600 288.000 C 55.667 288.000,55.600 287.867,55.600 286.000 C 55.600 284.145,55.529 284.000,54.622 284.000 C 53.739 284.000,53.632 283.815,53.522 282.100 C 53.419 280.493,53.264 280.181,52.521 280.075 C 51.779 279.969,51.623 279.656,51.521 278.075 C 51.425 276.591,51.216 276.119,50.518 275.813 C 49.827 275.510,49.611 275.034,49.518 273.613 C 49.419 272.094,49.257 271.780,48.521 271.675 C 47.779 271.569,47.623 271.256,47.521 269.675 C 47.418 268.079,47.266 267.781,46.500 267.672 C 45.747 267.565,45.600 267.296,45.600 266.022 C 45.600 263.490,45.139 261.909,44.339 261.700 C 43.786 261.555,43.600 261.129,43.600 260.003 C 43.600 257.489,43.137 255.909,42.339 255.700 C 41.793 255.557,41.599 255.128,41.596 254.053 C 41.586 250.894,41.165 249.600,40.148 249.600 C 39.235 249.600,39.200 249.489,39.200 246.600 C 39.200 243.667,39.178 243.600,38.200 243.600 L 37.200 243.600 37.200 238.643 C 37.200 233.704,37.197 233.686,36.211 233.438 L 35.221 233.190 35.111 227.295 C 35.002 221.525,34.981 221.397,34.100 221.272 L 33.200 221.144 33.200 201.972 L 33.200 182.800 34.200 182.800 L 35.200 182.800 35.200 176.808 L 35.200 170.815 36.200 170.564 C 37.199 170.313,37.200 170.310,37.200 165.357 L 37.200 160.400 38.200 160.400 C 39.178 160.400,39.200 160.333,39.200 157.400 C 39.200 154.502,39.233 154.400,40.157 154.400 C 41.347 154.400,41.600 153.764,41.600 150.767 C 41.600 148.711,41.700 148.400,42.357 148.400 C 43.343 148.400,43.600 147.650,43.600 144.767 C 43.600 142.711,43.700 142.400,44.357 142.400 C 45.247 142.400,45.600 141.652,45.600 139.767 C 45.600 138.692,45.762 138.400,46.357 138.400 C 47.341 138.400,47.600 137.650,47.600 134.795 C 47.600 132.674,47.684 132.444,48.500 132.328 C 49.266 132.219,49.418 131.921,49.521 130.325 C 49.623 128.744,49.779 128.431,50.521 128.325 C 51.262 128.220,51.419 127.907,51.521 126.325 C 51.623 124.744,51.779 124.431,52.521 124.325 C 53.280 124.217,53.416 123.914,53.521 122.100 C 53.632 120.172,53.722 120.000,54.621 120.000 C 55.399 120.000,55.600 119.794,55.600 119.000 C 55.600 118.200,55.800 118.000,56.600 118.000 C 57.533 118.000,57.600 117.867,57.600 116.000 C 57.600 114.133,57.667 114.000,58.600 114.000 C 59.533 114.000,59.600 113.867,59.600 112.000 C 59.600 110.133,59.667 110.000,60.600 110.000 C 61.392 110.000,61.600 109.798,61.600 109.028 C 61.600 108.324,61.849 108.020,62.500 107.928 C 63.070 107.847,63.446 107.479,63.525 106.925 C 63.602 106.379,63.979 106.002,64.525 105.925 C 65.264 105.819,65.419 105.504,65.522 103.900 C 65.632 102.185,65.739 102.000,66.622 102.000 C 67.391 102.000,67.600 101.792,67.600 101.028 C 67.600 100.324,67.849 100.020,68.500 99.928 C 69.070 99.847,69.446 99.479,69.525 98.925 C 69.602 98.379,69.979 98.002,70.525 97.925 C 71.264 97.819,71.419 97.504,71.522 95.900 C 71.632 94.185,71.739 94.000,72.622 94.000 C 73.399 94.000,73.600 93.794,73.600 93.000 C 73.600 92.200,73.800 92.000,74.600 92.000 C 75.400 92.000,75.600 91.800,75.600 91.000 C 75.600 90.200,75.800 90.000,76.600 90.000 C 77.400 90.000,77.600 89.800,77.600 89.000 C 77.600 88.200,77.800 88.000,78.600 88.000 C 79.392 88.000,79.600 87.798,79.600 87.028 C 79.600 86.324,79.849 86.020,80.500 85.928 C 80.995 85.858,81.573 85.406,81.784 84.925 C 81.996 84.443,82.504 83.962,82.914 83.854 C 83.324 83.747,83.747 83.324,83.854 82.914 C 83.962 82.504,84.443 81.996,84.925 81.784 C 85.406 81.573,85.858 80.995,85.928 80.500 C 86.020 79.849,86.324 79.600,87.028 79.600 C 87.798 79.600,88.000 79.392,88.000 78.600 C 88.000 77.800,88.200 77.600,89.000 77.600 C 89.800 77.600,90.000 77.400,90.000 76.600 C 90.000 75.800,90.200 75.600,91.000 75.600 C 91.800 75.600,92.000 75.400,92.000 74.600 C 92.000 73.682,92.147 73.600,93.792 73.600 C 95.359 73.600,95.616 73.477,95.830 72.623 C 95.979 72.028,96.413 71.598,96.938 71.523 C 97.479 71.446,97.848 71.065,97.928 70.500 C 98.020 69.849,98.324 69.600,99.028 69.600 C 99.798 69.600,100.000 69.392,100.000 68.600 C 100.000 67.800,100.200 67.600,101.000 67.600 C 101.800 67.600,102.000 67.400,102.000 66.600 C 102.000 65.667,102.133 65.600,104.000 65.600 C 105.867 65.600,106.000 65.533,106.000 64.600 C 106.000 63.800,106.200 63.600,107.000 63.600 C 107.800 63.600,108.000 63.400,108.000 62.600 C 108.000 61.667,108.133 61.600,110.000 61.600 C 111.867 61.600,112.000 61.533,112.000 60.600 C 112.000 59.800,112.200 59.600,113.000 59.600 C 113.800 59.600,114.000 59.400,114.000 58.600 C 114.000 57.667,114.133 57.600,116.000 57.600 C 117.867 57.600,118.000 57.533,118.000 56.600 C 118.000 55.667,118.134 55.600,119.992 55.600 C 121.784 55.600,122.010 55.499,122.236 54.600 C 122.429 53.830,122.745 53.600,123.611 53.600 C 125.245 53.600,126.000 53.214,126.000 52.379 C 126.000 51.786,126.367 51.620,127.900 51.522 C 129.409 51.425,129.880 51.219,130.187 50.518 C 130.490 49.827,130.966 49.611,132.387 49.518 C 133.919 49.418,134.220 49.261,134.328 48.500 C 134.440 47.708,134.688 47.600,136.402 47.600 C 138.744 47.600,140.400 47.033,140.400 46.232 C 140.400 45.814,140.950 45.609,142.300 45.522 C 143.921 45.418,144.219 45.268,144.328 44.500 C 144.444 43.684,144.674 43.600,146.795 43.600 C 149.650 43.600,150.400 43.341,150.400 42.357 C 150.400 41.688,150.718 41.600,153.150 41.600 C 157.283 41.600,158.400 41.292,158.400 40.150 C 158.400 39.214,158.458 39.200,162.372 39.200 C 166.187 39.200,166.349 39.164,166.472 38.300 C 166.595 37.434,166.789 37.392,171.600 37.200 C 176.411 37.008,176.605 36.966,176.728 36.100 L 176.856 35.200 200.028 35.200 L 223.200 35.200 223.200 36.200 L 223.200 37.200 228.400 37.200 L 233.600 37.200 233.600 38.200 L 233.600 39.200 238.573 39.200 L 243.547 39.200 243.673 40.300 C 243.797 41.375,243.867 41.403,246.700 41.518 C 249.212 41.619,249.600 41.734,249.600 42.375 C 249.600 43.343,250.362 43.600,253.233 43.600 C 255.289 43.600,255.600 43.700,255.600 44.357 C 255.600 45.343,256.350 45.600,259.233 45.600 C 261.289 45.600,261.600 45.700,261.600 46.357 C 261.600 47.244,262.347 47.600,264.206 47.600 C 265.169 47.600,265.614 47.813,265.786 48.357 C 266.071 49.253,267.121 49.587,269.672 49.595 C 271.307 49.599,271.561 49.714,271.672 50.500 C 271.781 51.265,272.080 51.418,273.662 51.520 C 275.257 51.623,275.559 51.781,275.769 52.620 C 275.989 53.496,276.227 53.600,278.008 53.600 C 279.866 53.600,280.000 53.667,280.000 54.600 C 280.000 55.533,280.133 55.600,282.000 55.600 C 283.867 55.600,284.000 55.667,284.000 56.600 C 284.000 57.400,284.200 57.600,285.000 57.600 C 285.800 57.600,286.000 57.800,286.000 58.600 C 286.000 59.533,286.133 59.600,288.000 59.600 C 289.867 59.600,290.000 59.667,290.000 60.600 C 290.000 61.392,290.202 61.600,290.972 61.600 C 291.676 61.600,291.980 61.849,292.072 62.500 C 292.181 63.268,292.479 63.418,294.100 63.522 C 295.815 63.632,296.000 63.739,296.000 64.622 C 296.000 65.391,296.208 65.600,296.972 65.600 C 297.676 65.600,297.980 65.849,298.072 66.500 C 298.181 67.268,298.479 67.418,300.100 67.522 C 301.815 67.632,302.000 67.739,302.000 68.622 C 302.000 69.399,302.206 69.600,303.000 69.600 C 303.800 69.600,304.000 69.800,304.000 70.600 C 304.000 71.392,304.202 71.600,304.972 71.600 C 305.676 71.600,305.980 71.849,306.072 72.500 C 306.152 73.065,306.521 73.446,307.062 73.523 C 307.587 73.598,308.021 74.028,308.170 74.623 C 308.384 75.477,308.641 75.600,310.208 75.600 C 311.853 75.600,312.000 75.682,312.000 76.600 C 312.000 77.400,312.200 77.600,313.000 77.600 C 313.800 77.600,314.000 77.800,314.000 78.600 C 314.000 79.393,314.202 79.600,314.973 79.600 C 315.738 79.600,315.974 79.836,316.073 80.700 C 316.164 81.487,316.456 81.836,317.099 81.928 C 317.660 82.007,318.090 82.421,318.243 83.028 C 318.416 83.718,318.764 84.000,319.443 84.000 C 320.197 84.000,320.400 84.212,320.400 85.000 C 320.400 85.800,320.600 86.000,321.400 86.000 C 322.200 86.000,322.400 86.200,322.400 87.000 C 322.400 87.800,322.600 88.000,323.400 88.000 C 324.200 88.000,324.400 88.200,324.400 89.000 C 324.400 89.800,324.600 90.000,325.400 90.000 C 326.318 90.000,326.400 90.147,326.400 91.792 C 326.400 93.359,326.523 93.616,327.377 93.830 C 327.972 93.979,328.402 94.413,328.477 94.938 C 328.554 95.479,328.935 95.848,329.500 95.928 C 330.151 96.020,330.400 96.324,330.400 97.028 C 330.400 97.798,330.608 98.000,331.400 98.000 C 332.200 98.000,332.400 98.200,332.400 99.000 C 332.400 99.794,332.601 100.000,333.378 100.000 C 334.261 100.000,334.368 100.185,334.478 101.900 C 334.582 103.521,334.732 103.819,335.500 103.928 C 336.151 104.020,336.400 104.324,336.400 105.028 C 336.400 105.792,336.609 106.000,337.378 106.000 C 338.261 106.000,338.368 106.185,338.478 107.900 C 338.582 109.521,338.732 109.819,339.500 109.928 C 340.151 110.020,340.400 110.324,340.400 111.028 C 340.400 111.792,340.609 112.000,341.378 112.000 C 342.261 112.000,342.368 112.185,342.478 113.900 C 342.582 115.521,342.732 115.819,343.500 115.928 C 344.229 116.031,344.400 116.311,344.400 117.395 C 344.400 119.253,344.757 120.000,345.643 120.000 C 346.238 120.000,346.400 120.292,346.400 121.367 C 346.400 123.252,346.753 124.000,347.643 124.000 C 348.238 124.000,348.400 124.292,348.400 125.367 C 348.400 127.252,348.753 128.000,349.643 128.000 C 350.201 128.000,350.401 128.289,350.405 129.100 C 350.414 130.893,350.838 131.958,351.643 132.214 C 352.187 132.386,352.400 132.831,352.400 133.794 C 352.400 135.653,352.756 136.400,353.643 136.400 C 354.255 136.400,354.400 136.696,354.400 137.950 C 354.400 140.509,354.858 142.090,355.661 142.300 C 356.191 142.439,356.400 142.866,356.400 143.814 C 356.400 145.653,356.759 146.400,357.643 146.400 C 358.255 146.400,358.400 146.696,358.400 147.941 C 358.400 152.316,358.870 154.400,359.857 154.400 C 360.785 154.400,360.800 154.464,360.800 158.400 C 360.800 162.387,360.803 162.400,361.788 162.400 L 362.776 162.400 362.888 167.500 C 362.997 172.445,363.027 172.604,363.900 172.728 L 364.800 172.856 364.800 288.428 L 364.800 404.000 381.800 404.000 L 398.800 404.000 398.800 386.400 C 398.800 371.022,398.876 368.800,399.400 368.800 C 399.932 368.800,400.000 358.311,400.000 276.800 C 400.000 195.289,399.932 184.800,399.400 184.800 C 398.883 184.800,398.800 183.422,398.800 174.800 L 398.800 164.800 397.812 164.800 L 396.824 164.800 396.712 159.700 C 396.604 154.776,396.569 154.596,395.712 154.474 C 394.858 154.352,394.820 154.164,394.712 149.474 C 394.604 144.763,394.570 144.596,393.700 144.472 C 392.859 144.353,392.800 144.150,392.800 141.372 C 392.800 138.469,392.777 138.400,391.800 138.400 C 390.822 138.400,390.800 138.333,390.800 135.400 C 390.800 132.467,390.778 132.400,389.800 132.400 C 388.822 132.400,388.800 132.333,388.800 129.400 C 388.800 126.481,388.773 126.400,387.818 126.400 C 386.875 126.400,386.830 126.281,386.718 123.500 C 386.610 120.839,386.526 120.589,385.700 120.472 C 384.909 120.360,384.800 120.111,384.800 118.416 C 384.800 116.703,384.690 116.459,383.822 116.241 C 382.981 116.030,382.827 115.730,382.722 114.098 C 382.619 112.493,382.464 112.181,381.721 112.075 C 380.979 111.969,380.823 111.656,380.721 110.075 C 380.618 108.479,380.466 108.181,379.700 108.072 C 378.906 107.959,378.800 107.713,378.800 105.972 C 378.800 104.135,378.731 104.000,377.800 104.000 C 376.867 104.000,376.800 103.867,376.800 102.000 C 376.800 100.133,376.733 100.000,375.800 100.000 C 374.928 100.000,374.800 99.824,374.800 98.633 C 374.800 96.748,374.447 96.000,373.557 96.000 C 373.016 96.000,372.800 95.714,372.800 95.000 C 372.800 94.200,372.600 94.000,371.800 94.000 C 370.867 94.000,370.800 93.867,370.800 92.000 C 370.800 90.133,370.733 90.000,369.800 90.000 C 368.977 90.000,368.799 89.805,368.795 88.900 C 368.785 87.044,368.349 86.000,367.581 86.000 C 367.133 86.000,366.807 85.656,366.728 85.100 C 366.646 84.522,366.278 84.154,365.700 84.072 C 365.049 83.980,364.800 83.676,364.800 82.972 C 364.800 82.202,364.592 82.000,363.800 82.000 C 362.928 82.000,362.800 81.824,362.800 80.633 C 362.800 78.748,362.447 78.000,361.557 78.000 C 361.095 78.000,360.800 77.720,360.800 77.280 C 360.800 76.358,360.042 75.600,359.120 75.600 C 358.619 75.600,358.400 75.296,358.400 74.600 C 358.400 73.800,358.200 73.600,357.400 73.600 C 356.482 73.600,356.400 73.453,356.400 71.808 C 356.400 70.241,356.277 69.984,355.423 69.770 C 354.828 69.621,354.398 69.187,354.323 68.662 C 354.247 68.130,353.865 67.752,353.325 67.675 C 352.779 67.598,352.402 67.221,352.325 66.675 C 352.246 66.121,351.870 65.753,351.300 65.672 C 350.649 65.580,350.400 65.276,350.400 64.572 C 350.400 63.802,350.192 63.600,349.400 63.600 C 348.600 63.600,348.400 63.400,348.400 62.600 C 348.400 61.800,348.200 61.600,347.400 61.600 C 346.600 61.600,346.400 61.400,346.400 60.600 C 346.400 59.800,346.200 59.600,345.400 59.600 C 344.600 59.600,344.400 59.400,344.400 58.600 C 344.400 57.800,344.200 57.600,343.400 57.600 C 342.600 57.600,342.400 57.400,342.400 56.600 C 342.400 55.800,342.200 55.600,341.400 55.600 C 340.600 55.600,340.400 55.400,340.400 54.600 C 340.400 53.800,340.200 53.600,339.400 53.600 C 338.600 53.600,338.400 53.400,338.400 52.600 C 338.400 51.808,338.198 51.600,337.428 51.600 C 336.724 51.600,336.420 51.351,336.328 50.700 C 336.247 50.130,335.879 49.754,335.325 49.675 C 334.779 49.598,334.402 49.221,334.325 48.675 C 334.248 48.135,333.870 47.753,333.338 47.677 C 332.813 47.602,332.379 47.172,332.230 46.577 C 332.016 45.723,331.759 45.600,330.192 45.600 C 328.547 45.600,328.400 45.518,328.400 44.600 C 328.400 43.800,328.200 43.600,327.400 43.600 C 326.600 43.600,326.400 43.400,326.400 42.600 C 326.400 41.812,326.197 41.600,325.443 41.600 C 324.757 41.600,324.416 41.318,324.236 40.600 C 324.040 39.821,323.728 39.600,322.825 39.600 C 321.140 39.600,320.400 39.218,320.400 38.347 C 320.400 37.818,320.035 37.507,319.222 37.344 C 318.419 37.184,318.005 36.837,317.922 36.254 C 317.846 35.721,317.462 35.352,316.900 35.272 C 316.342 35.193,316.000 34.867,316.000 34.415 C 316.000 33.552,315.237 33.200,313.367 33.200 C 312.176 33.200,312.000 33.072,312.000 32.200 C 312.000 31.400,311.800 31.200,311.000 31.200 C 310.287 31.200,310.000 30.984,310.000 30.447 C 310.000 29.653,308.985 29.215,307.128 29.205 C 306.323 29.201,306.024 28.976,305.928 28.300 C 305.819 27.532,305.521 27.382,303.900 27.278 C 302.185 27.168,302.000 27.061,302.000 26.178 C 302.000 25.271,301.855 25.200,300.000 25.200 C 298.133 25.200,298.000 25.133,298.000 24.200 C 298.000 23.267,297.867 23.200,296.000 23.200 C 294.133 23.200,294.000 23.133,294.000 22.200 C 294.000 21.267,293.867 21.200,292.000 21.200 C 290.133 21.200,290.000 21.133,290.000 20.200 C 290.000 19.269,289.865 19.200,288.028 19.200 C 286.287 19.200,286.041 19.094,285.928 18.300 C 285.819 17.534,285.521 17.382,283.925 17.279 C 282.344 17.177,282.031 17.021,281.925 16.279 C 281.817 15.520,281.514 15.384,279.700 15.279 C 277.772 15.168,277.600 15.078,277.600 14.179 C 277.600 13.227,277.516 13.200,274.600 13.200 C 271.667 13.200,271.600 13.178,271.600 12.200 C 271.600 11.222,271.533 11.200,268.600 11.200 C 265.667 11.200,265.600 11.178,265.600 10.200 C 265.600 9.222,265.533 9.200,262.600 9.200 C 259.667 9.200,259.600 9.178,259.600 8.200 L 259.600 7.200 255.600 7.200 L 251.600 7.200 251.600 6.200 C 251.600 5.201,251.597 5.200,247.643 5.200 C 243.757 5.200,243.682 5.182,243.436 4.200 L 243.185 3.200 237.192 3.200 L 231.200 3.200 231.200 2.200 L 231.200 1.200 221.200 1.200 C 212.578 1.200,211.200 1.117,211.200 0.600 C 211.200 0.080,209.578 0.000,199.000 0.000 C 188.422 0.000,186.800 0.080,186.800 0.600 " stroke="none" fill="#041454" fill-rule="evenodd"></path></g></svg>