<svg width="76" height="152" viewBox="0 0 76 152" fill="none" xmlns="http://www.w3.org/2000/svg">
<path d="M22.1847 80.5653C22.1847 71.5781 27.7713 66.3963 35.625 66.3963C43.3168 66.3963 47.8509 71.2947 47.8509 79.6747V117H62.5057V77.4077C62.5057 62.3885 54.0043 54.0085 41.0902 54.0085C31.5362 54.0085 25.4638 58.3402 22.5895 65.3842H21.8608V34.0909H7.52983V117H22.1847V80.5653Z" fill="#03129C"/>
<path d="M28.0958 80.5653C28.0958 71.5781 33.5205 66.3963 41.2528 66.3963C48.8231 66.3963 53.3572 71.3757 53.3572 79.6747V117H68.012V77.4077C68.0525 62.5099 59.5511 54.0085 46.718 54.0085C37.4069 54.0085 31.0106 58.4616 28.1768 65.3842H27.4481V54.8182H13.441V117H28.0958V80.5653Z" fill="#B9C0FF"/>
</svg>
